<svg id="Capa_1" data-name="Capa 1" xmlns="http://www.w3.org/2000/svg" viewBox="0 0 289.06 292.34"><defs><style>.cls-1{fill:#020202;}.cls-2{fill:#f9ece4;}</style></defs><path class="cls-1" d="M72.52,18.85C82.45,6,99,2.08,113.75,8.46a3.82,3.82,0,0,0,2.48.2,142.87,142.87,0,0,1,47-3.14c2.17.21,4.33.39,6.5.54a19.63,19.63,0,0,0,5.93-.6Q202.11-1,222.76,16.72a.82.82,0,0,0,.87.15c47.31-18.2,88.17,34.07,59.91,75.86a1,1,0,0,0-.1,1,145.13,145.13,0,0,1-8.64,128.58.81.81,0,0,0,0,.87c6,10.75,9.11,19.75,7.63,32A46.57,46.57,0,0,1,234.3,296q-16.63-.67-29.94-12.39a.57.57,0,0,0-.61-.1,145,145,0,0,1-90.25,5.67,10.75,10.75,0,0,0-4.52-.16q-34.45,5.9-63.17-10.85c-25.64-14.95-40.24-43.5-29.44-72.53a1.32,1.32,0,0,0,0-.94c-15-37.68-14.48-76.58,1.38-113.91a1,1,0,0,0-.08-.92C-5.86,54.38,24.69,7.73,66.88,18c1.59.39,3.19.76,4.8,1.13A.76.76,0,0,0,72.52,18.85Zm205,73.23a4.33,4.33,0,0,1,.81-1.73Q289.19,75.4,287,58c-1.39-11.34-7.63-23.3-16.84-30q-21.66-15.69-47-5.25a2,2,0,0,1-2.25-.36q-2.18-1.87-4.77-3.83-18.94-14.13-41.76-7.12a7.47,7.47,0,0,1-2.93.34,140.75,140.75,0,0,0-56.23,2.69,2.68,2.68,0,0,1-1.92-.25,28.52,28.52,0,0,0-35.17,6.41q-1.84,2.13-3.27,3.93a1.92,1.92,0,0,1-2.41.67c-16.25-6.25-33-3.43-45.39,8.57a41.17,41.17,0,0,0-3.76,54.53,2.26,2.26,0,0,1,.28,2.28q-25,56.7-1.45,114.08a.77.77,0,0,1,0,.56c-9.07,22.88-2,45.68,16.6,61.21,19.69,16.44,46.63,21.7,71.42,16.8a4.93,4.93,0,0,1,2.26.07q46.86,12.5,91.55-5.8a2.08,2.08,0,0,1,2.09.31c1.23,1,2.57,2.09,4,3.26q11.77,9.53,26,9.5c34.26-.05,53.24-38.81,32.79-66.12a2.37,2.37,0,0,1-.13-2.67A140.22,140.22,0,0,0,277.6,93.68,2.78,2.78,0,0,1,277.5,92.08Z" transform="translate(-5.45 -3.73)"/><path class="cls-1" d="M261.47,33.44q-8.46,11.73-17.25,23-4.36,5.63-9.09,10.94c-4,4.45-9.48,8-13.7,12.91-2.1,2.48-7.36,8.12-10.93,6.93Q207.35,86.2,195.66,82c-6.48-2.35-10.16.77-16.25,1.21a33.58,33.58,0,0,1-6.25-.62c-1.81-.29-9.08-1.51-9.16,1.8-.06,2.65,3.37,4.71,5.74,5.4,5.36,1.54,9.83.51,15,0,2.67-.29,6.14,1.16,5.08,4.32-.55,1.63-3.35,3.52-4.59,5a32.77,32.77,0,0,1-9.94,8.5c-8,4.22-18.52,8.32-23.67,16.28a1.9,1.9,0,0,0,.06,2.15c2,2.76,8-2.39,9.21-4.27a1.05,1.05,0,0,1,.7-.48c3.1-.63,4.27-2.53,6.51-3.42a45.3,45.3,0,0,0,5.92-2.74c2.06-1.22,5.48-1.32,6.6,1.23,1.35,3.1-5.72,9-8.47,11.17a30.6,30.6,0,0,0-9.6,11.86,2.21,2.21,0,0,0,.87,2.86q1.83,1.06,3.55-1a122.22,122.22,0,0,1,13.41-13.61c4.8-4.16,9.89-.86,6.84,5.15-3.26,6.44-7,12.6-5.1,18.12a1.12,1.12,0,0,0,1.91.36,14.42,14.42,0,0,0,3.3-6.45A31.5,31.5,0,0,1,192.51,133c2.08-2.92,7.71-2.61,8.39,1.5a140.8,140.8,0,0,0,3.15,14.35,1.1,1.1,0,0,0,1.22.79l.33,0a1.59,1.59,0,0,0,1.52-2c-.57-5.18-3.19-11.36,1.43-16.34,6.13-6.6,11.34-12.3,15-21.42a16.63,16.63,0,0,1,6.33-8Q246,90,261.48,77.44q1-.85,1.65,0a2.83,2.83,0,0,1,1.09,1.41.76.76,0,0,1-.27.84Q245,95,233.72,103.22c-3.47,2.55-5.28,3.87-7.11,8a70.18,70.18,0,0,1-7.05,12.43c-2.33,3.29-5.77,6.66-8.62,10-4.64,5.49,2.57,14.32-2.63,18.42-2.11,1.66-6.46,1-7.32-2.13q-2.09-7.58-3.08-13.27-.84-4.84-3.52-.72c-2.81,4.31-3.45,9.35-5.4,13.76-1.69,3.85-7.33,8.17-9.85,2.26-2.91-6.79,2.76-15.88,5.86-22.1a.59.59,0,0,0-.56-.86,1.85,1.85,0,0,0-1.13.51,105,105,0,0,0-13.7,13.79c-3,3.58-9.07,3.4-10.33-1.58-1.94-7.69,12.65-18,17.42-23.06a.87.87,0,0,0,.26-1,.44.44,0,0,0-.64-.17c-4.43,3-10.19,4.38-14.2,8.11A17.55,17.55,0,0,1,154,130c-4.36,1-7-3.82-5.38-7.28,2.59-5.65,10.78-10.67,16.12-13.39,5.74-2.93,12.32-5.66,16.56-10.75a50.89,50.89,0,0,1,4.35-4.66c.75-.7.62-1-.41-.89-8.14.89-14.53,2.29-21.64-3.11a7.21,7.21,0,0,1-2.77-4.38c-1.84-8.77,11.46-6.69,16-5.57,2.88.71,8.75-1.29,11.93-2.1a12,12,0,0,1,6.68.7q7.8,2.68,15.71,5.44a1.8,1.8,0,0,0,1.66-.27c5.51-4.23,9.32-9.59,14.81-13.88a46.06,46.06,0,0,0,7.41-7.25q12.07-14.8,23.27-30.45a.64.64,0,0,1,.86-.16Z" transform="translate(-5.45 -3.73)"/><path class="cls-2" d="M261.47,33.44a15.69,15.69,0,0,1,2,7.81c.09,10.34-.23,20.76.14,31.08a20.36,20.36,0,0,1-.46,5.11q-.61-.85-1.65,0Q246,90,229.93,101.93a16.63,16.63,0,0,0-6.33,8c-3.71,9.12-8.92,14.82-15,21.42-4.62,5-2,11.16-1.43,16.34a1.59,1.59,0,0,1-1.52,2l-.33,0a1.1,1.1,0,0,1-1.22-.79,140.8,140.8,0,0,1-3.15-14.35c-.68-4.11-6.31-4.42-8.39-1.5a31.5,31.5,0,0,0-5.17,11.79,14.42,14.42,0,0,1-3.3,6.45,1.12,1.12,0,0,1-1.91-.36c-1.93-5.52,1.84-11.68,5.1-18.12,3.05-6-2-9.31-6.84-5.15A122.22,122.22,0,0,0,167,141.24q-1.72,2-3.55,1a2.21,2.21,0,0,1-.87-2.86,30.6,30.6,0,0,1,9.6-11.86c2.75-2.2,9.82-8.07,8.47-11.17-1.12-2.55-4.54-2.45-6.6-1.23a45.3,45.3,0,0,1-5.92,2.74c-2.24.89-3.41,2.79-6.51,3.42a1.05,1.05,0,0,0-.7.48c-1.2,1.88-7.2,7-9.21,4.27a1.9,1.9,0,0,1-.06-2.15c5.15-8,15.63-12.06,23.67-16.28a32.77,32.77,0,0,0,9.94-8.5c1.24-1.51,4-3.4,4.59-5,1.06-3.16-2.41-4.61-5.08-4.32-5.18.56-9.65,1.59-15,0-2.37-.69-5.8-2.75-5.74-5.4.08-3.31,7.35-2.09,9.16-1.8a33.58,33.58,0,0,0,6.25.62c6.09-.44,9.77-3.56,16.25-1.21q11.68,4.22,14.84,5.28c3.57,1.19,8.83-4.45,10.93-6.93,4.22-5,9.74-8.46,13.7-12.91q4.73-5.33,9.09-10.94Q253,45.17,261.47,33.44Z" transform="translate(-5.45 -3.73)"/><path class="cls-1" d="M58.34,260.19a99.79,99.79,0,0,1,16.27-16.84c3.6-2.92,8.22-5.62,12.38-8.37,2.4-1.59,4.15-2.45,5.24-2.6a44.24,44.24,0,0,0,16.29-5.46c7.44-4.24,16-6.33,22.91-12.28q1.9-1.63,10.42-4.67c3.13-1.12,4.75-4.25,7.19-7.86a.85.85,0,0,0,.08-.87,3.08,3.08,0,0,1,.09-2.89c.17-.31.08-.47-.28-.48-2.51,0-4.31.59-5.42,1.89-3.25,3.81-7.78,4.08-12,6-3,1.38-6.16,2.37-8.87,1.23-7.39-3.11.35-15.57,3.57-19.35q2.31-2.73,10.15-8.55c8.74-6.51,17.67-13,25.45-20.63.73-.73.59-1-.42-.8a4,4,0,0,1-4.37-1.79.55.55,0,0,0-.8-.13A154,154,0,0,1,138,167.37c-3.73,2-6.56,4.51-9.82,7.06-2.38,1.86-5.77,4.15-8.35,3.13a2.78,2.78,0,0,1-.68-4.93q4.55-3.44,9-6.95c1.67-1.31,2.67-3.33,4.56-4.73a222.22,222.22,0,0,0,18.82-15.72q2-1.87-.72-1.52a3.85,3.85,0,0,1-3-.8.71.71,0,0,0-.86,0q-10.2,6.34-17.6,10.53a74.24,74.24,0,0,0-16.58,12.66,55.29,55.29,0,0,1-4.83,4.4c-.64.51-.84.37-.6-.41.86-2.76,3.21-9.65,6.07-11.13q5.9-3.06,11.63-6.64c.41-.25.39-.48,0-.67-3.73-1.68-10.69,1.75-14.63,2.82-3.24.88-5.91,2.1-7.57,4.69a90.55,90.55,0,0,1-11.38,14.72c-.77.79-1.38.68-1.82-.34l-.14-.32a1.78,1.78,0,0,1,.27-2L97.22,162c.33-.4.23-.6-.29-.59-3.12.05-5.41,1.1-6.88,3.13-3.43,4.75-7.78,9.53-10.67,14.56-2,3.45-3.5,8.37-5.33,10.9a83.18,83.18,0,0,0-9.91,18.36c-2.15,5.46-7.24,4.76-10.78,8a156.85,156.85,0,0,0-17,18.06,1.74,1.74,0,0,1-1.08.73,1.41,1.41,0,0,1-1.34-.58,1.8,1.8,0,0,1-.85-.8c-.11-.25,0-.56.28-.93a127.94,127.94,0,0,1,19.2-20c2.65-2.18,6.86-1.79,8.44-5.75,2.61-6.56,6.06-12.17,9.75-18.13,3.22-5.19,4.86-10.85,8.7-15.76q3.16-4,6.2-8.18c4.28-5.83,6.79-6.3,13.71-7.13a1.14,1.14,0,0,0,.8-.49c2-2.88,4.12-4.64,6.43-5.28q8.42-2.31,16.6-5.26c2.89-1,4.75-.21,5.6,2.46a.41.41,0,0,0,.58.23A197.76,197.76,0,0,0,146.73,139c7.53-5.14,11.85,4.15,7,8.72a214.86,214.86,0,0,1-17.05,14.43c-3.27,2.49-6,6-9.63,8.61a.12.12,0,0,0,0,.2h0a.12.12,0,0,0,.19,0c5.84-5.09,13.37-8.54,18.76-12.13l13.4-9a4.43,4.43,0,0,1,5-.34c4.5,2.53,2.82,8.26-.32,11.24-10.36,9.82-20.29,17-31,25.06-4.72,3.56-10,10.37-10.18,16.51a1.62,1.62,0,0,0,1.5,1.67c4.12.32,8.79-2.6,12.8-3.82a7.88,7.88,0,0,0,2.75-1.47c3.9-3.17,6.36-4.75,11.8-4.11,4.61.54,5.11,4.49,2,7.45a47.48,47.48,0,0,0-6.06,7.65,12,12,0,0,1-4.86,3.32A45.1,45.1,0,0,0,131.1,219c-6,4.27-12.19,6.06-18.59,9.41-4.64,2.43-11.84,6.5-15.76,6.61a16.26,16.26,0,0,0-7.7,2.6,100.21,100.21,0,0,0-27.56,23.62.59.59,0,0,1-.82.18Zm93.57-118.93c-.07-.38-.77-.57-1.56-.43s-1.37.57-1.3.95.77.57,1.56.43S152,141.64,151.91,141.26Zm11.93,12.12c-.37-.9-1.8-1.17-3.19-.6s-2.22,1.76-1.85,2.66,1.8,1.17,3.19.6S164.21,154.28,163.84,153.38Zm-13.29,46.78c.31.27.93.05,1.4-.49s.6-1.19.3-1.45-.93-.05-1.4.49S150.25,199.9,150.55,200.16Z" transform="translate(-5.45 -3.73)"/><ellipse class="cls-2" cx="150.48" cy="141.52" rx="1.45" ry="0.7" transform="translate(-28.53 25.76) rotate(-10.4)"/><path class="cls-2" d="M58.34,260.19A83.42,83.42,0,0,1,37,261.28a4.78,4.78,0,0,1-3.75-2.09,6.67,6.67,0,0,1-.88-3.83c0-6.45-1.35-14.91,1.58-20.79a1.41,1.41,0,0,0,1.34.58,1.74,1.74,0,0,0,1.08-.73,156.85,156.85,0,0,1,17-18.06c3.54-3.21,8.63-2.51,10.78-8A83.18,83.18,0,0,1,74.05,190c1.83-2.53,3.36-7.45,5.33-10.9,2.89-5,7.24-9.81,10.67-14.56,1.47-2,3.76-3.08,6.88-3.13.52,0,.62.19.29.59l-7.43,9.18a1.78,1.78,0,0,0-.27,2l.14.32c.44,1,1,1.13,1.82.34a90.55,90.55,0,0,0,11.38-14.72c1.66-2.59,4.33-3.81,7.57-4.69,3.94-1.07,10.9-4.5,14.63-2.82.43.19.45.42,0,.67q-5.75,3.58-11.63,6.64c-2.86,1.48-5.21,8.37-6.07,11.13-.24.78,0,.92.6.41a55.29,55.29,0,0,0,4.83-4.4,74.24,74.24,0,0,1,16.58-12.66q7.4-4.18,17.6-10.53a.71.71,0,0,1,.86,0,3.85,3.85,0,0,0,3,.8q2.73-.36.72,1.52A222.22,222.22,0,0,1,132.75,161c-1.89,1.4-2.89,3.42-4.56,4.73q-4.5,3.51-9,6.95a2.78,2.78,0,0,0,.68,4.93c2.58,1,6-1.27,8.35-3.13,3.26-2.55,6.09-5.05,9.82-7.06a154,154,0,0,0,18.27-11.61.55.55,0,0,1,.8.13,4,4,0,0,0,4.37,1.79c1-.19,1.15.07.42.8-7.78,7.67-16.71,14.12-25.45,20.63q-7.85,5.82-10.15,8.55c-3.22,3.78-11,16.24-3.57,19.35,2.71,1.14,5.87.15,8.87-1.23,4.18-1.94,8.71-2.21,12-6,1.11-1.3,2.91-1.93,5.42-1.89.36,0,.45.17.28.48a3.08,3.08,0,0,0-.09,2.89.85.85,0,0,1-.08.87c-2.44,3.61-4.06,6.74-7.19,7.86q-8.52,3-10.42,4.67c-6.91,6-15.47,8-22.91,12.28a44.24,44.24,0,0,1-16.29,5.46c-1.09.15-2.84,1-5.24,2.6-4.16,2.75-8.78,5.45-12.38,8.37A99.79,99.79,0,0,0,58.34,260.19Z" transform="translate(-5.45 -3.73)"/><ellipse class="cls-2" cx="161.32" cy="154.41" rx="2.72" ry="1.76" transform="translate(-51.98 69.03) rotate(-22.3)"/><ellipse class="cls-2" cx="151.4" cy="199.19" rx="1.29" ry="0.73" transform="translate(-103.68 178.61) rotate(-48.9)"/></svg>