<?xml version="1.0" encoding="utf-8"?>
<!-- Generator: Adobe Illustrator 24.1.0, SVG Export Plug-In . SVG Version: 6.00 Build 0)  -->
<svg version="1.1" id="Capa_1" xmlns="http://www.w3.org/2000/svg" xmlns:xlink="http://www.w3.org/1999/xlink" x="0px" y="0px"
	 viewBox="0 0 381 279" style="enable-background:new 0 0 381 279;" xml:space="preserve">
<style type="text/css">
	.st0{fill:#FFFFFF;}
</style>
<path d="M38.9,105.7c0-1.3-0.3-1.4-1-0.2c-3.3,6.3-6.5,12.4-9.6,18.3c-0.4,0.7-0.5,1.4-0.6,2.2c-0.2,9.8,0.4,19.6,1.8,29.4
	c0.2,1.7,0.1,3.3-0.1,5c0,0.3,0.1,0.6,0.4,0.8c7.5,4.3,1.8,19.7-6.8,13.8c-3.1-2.1-4.9-5.1-5.2-9c-0.3-3.3,2-5.6,1.7-8.7
	c-0.3-3.2-0.8-6.4-0.9-9.6c0-4.9-0.3-10.4-1-16.6c-0.4-4.3-0.1-8,2.1-12c6-11.3,12-22.6,17.9-34c1.2-2.2,3-3.7,5.6-4.6
	c1.9-0.6,2.7-1.7,2-3.6c-0.1-0.3-0.4-0.5-0.7-0.6C32.9,73.5,23.9,64.8,21.5,53c-4.9-23.5,19.6-42.7,41.3-32.6
	C73,25.2,78.7,34.3,80.1,45.7c0.2,1.4,0.6,2.6,1.2,3.7c4,6.7,2.6,6.9-3,11.1c-2.1,1.6-2.9,3.8-4.4,5.9c-4.5,6-10.4,9.3-17.9,9.8
	c-0.3,0-0.6,0.2-0.6,0.5c-1.4,6.2,3.3,4.4,4.4,8.5c3.1,12.4,7,24.8,9.7,37.3c2,9,6.9,16,13.7,26.9c1.1,1.7,1.8,4.6,4.2,5.6
	c5.7,2.5,11.7,6.8,9.3,14c-0.6,1.7-1.6,2.8-3.2,3.6c-4.3,2-9.5-2.8-11.3-6.2c-1.2-2.1-1.8-3.2-1.8-3.3c-5.5-8.8-10.9-17.7-16-26.7
	c-1.3-2.4-2.3-4.8-3-7.4c-1.1-4.4-1.8-8.5-3.6-12.7c-0.1-0.3-0.2-0.3-0.2,0l0,34.3c0,1.6,0.3,3.2,1,4.7c0.8,1.9,1.9,4.1,3.2,6.5
	c6.6,12.7,13.2,25.3,19.8,38c1.6,3,2.6,5.8,3.2,8.4c1.1,5.6,1,11.2,2,16.7c0.4,2.6,0.8,5.1,1,7.7c0.4,5.5,1.7,11.2,1.8,17
	c0,0.3,0.2,0.5,0.5,0.5c2.3,0.1,4.5-0.1,6.7-0.7c2.1-0.5,3.7-0.6,4.7-0.4c5.6,1.4,7.5,9.3,3.1,12.9c-1,0.8-2.4,1.3-4.4,1.5
	c-3.8,0.4-7.2,1.4-11.1,1.7c-2.6,0.2-5.1,1.1-7.5,0.5c-6.5-1.6-5-6.5-5.9-11.2c-0.5-2.8-0.8-5.6-1-8.4c-0.3-5.2-1.3-9.9-1.7-14.9
	c-0.5-5.7-1.6-11.3-1.9-17.1c-0.1-2.1-0.7-4.7-1.5-6.1c-5.7-10.5-11-20.8-16-30.9c-1.1-2.2-1.6-2-1.5,0.4c0.2,9-1.4,18.3-1.5,27.7
	c0,2.8-1.2,4.6-2.8,6.7c-9,12.4-18.1,24.7-27,37c-0.2,0.3-0.2,0.8,0.2,1c2.9,2,9.1,5.7,9.5,9.4c0.8,6.6-5.8,11-11.4,7.2
	c-4.6-3.1-9.1-6.5-13.4-10.1c-4.8-3.9-2.1-8.5,1.2-13c9.1-12.5,18.2-25,27.4-37.4c0.9-1.3,1.5-2.6,1.7-4.1c1.3-8.2,1.2-17.4,2-24.7
	c1.4-11.9,2-19.7,2-23.4C39.4,137.4,39.2,121.4,38.9,105.7z M74.6,49.8c0.1-12-7.3-23.8-19.8-25.7c-9.5-1.4-17.2,1.5-23,8.9
	c-4.1,5.2-5.8,10.6-5.3,16.3c1.2,11.5,11.2,21.2,23.3,21.5c6.3,0.2,12.3-0.9,17.1-5c2.8-2.3,3.7-6.1,6.4-8.6c1.1-1,2.1-1.9,3.3-2.7
	c0.5-0.3,0.5-1,0.2-1.5l-1.9-2.3C74.7,50.5,74.6,50.1,74.6,49.8z M91.7,167.7c1-0.8,0.6-2.9-0.8-4.6c-1.4-1.7-3.4-2.5-4.3-1.7
	c-1,0.8-0.6,2.9,0.8,4.6C88.8,167.7,90.7,168.5,91.7,167.7z M27.8,170.4c1.5-3.8-0.5-6.8-4.5-6.3c-0.3,0-0.5,0.2-0.5,0.5
	c0,2.6,1,4.7,2.9,6.3C26.6,171.8,27.3,171.6,27.8,170.4z"/>
<path d="M63.9,42.3l1.9,0.1c1.4,0.1,2.5,1.3,2.4,2.7L68,46c-0.1,1.4-1.3,2.5-2.7,2.4l-1.9-0.1c-1.4-0.1-2.5-1.3-2.4-2.7l0.1-0.9
	C61.3,43.3,62.5,42.2,63.9,42.3z"/>
<path d="M374.5,223.1c0,0.2-0.2,0.4-0.4,0.4H193.9c-0.2,0-0.4-0.2-0.4-0.4V42.9c0-0.2,0.2-0.4,0.4-0.4h180.2c0.2,0,0.4,0.2,0.4,0.4
	V223.1z M370.2,47.3c0-0.3-0.3-0.6-0.5-0.6H198.3c-0.3,0-0.6,0.3-0.6,0.6v171.3c0,0.3,0.3,0.6,0.6,0.6h171.3c0.3,0,0.5-0.3,0.5-0.6
	V47.3z"/>
<path d="M286.1,125.5c-1.1-11.3-0.9-23.2,0.6-35.5c0.1-1.1,0.3-2.1,0.5-3c0.8-3.2,0.4-6.8,0.4-10.1c0-2.2-0.3-4.5-0.7-7.1
	c-0.6-3.5-1.1-6.9-1.3-10.3c0-0.5,0.2-0.7,0.6-0.8l2.6-0.4c0.4-0.1,0.7,0.2,0.7,0.6l0,4.1c0,0.4,0.5,0.6,0.8,0.4
	c0.6-0.6,1.4-0.9,2.4-0.9c5.1,0,10.2,0,15.3,0c2.1,0,4.3,0.9,6.5,2.5c9.7,7.1,19.4,14.1,29.2,21c2.7,1.9,2.5,5.7,1.6,8.5
	c-0.1,0.3-0.4,0.6-0.7,0.7l-2.2,0.8c-0.4,0.1-0.6,0.4-0.6,0.8c0,16.8,0,33.6,0.1,50.4c0,2.8,0.5,9.3-3.7,9.4c-6.3,0.2-15.3,1-21-2.2
	c-0.3-0.2-0.6-0.2-0.9-0.1c-1.8,0.6-3.7,0.8-5.6,0.7c-0.4,0-0.6,0.2-0.6,0.5c-1.2,8.7-5.7,15.5-11.6,21.6c-0.3,0.3-0.4,0.7-0.3,1.1
	l4.5,21c0.1,0.3,0,0.6-0.1,0.8c-1.5,3-6.5,2.5-9.4,2.3c-0.3,0-0.6,0.1-0.8,0.4c-1.9,2.3-3.4,4.6-6.2,4.6
	c-11.4,0.2-20.4,0.1-26.8-0.3c-10.3-0.7-16.1-2.9-24.5-5.1c-2.7-0.7-4.9-7-5.3-9.5c-0.8-5.1-0.9-10.1-0.3-15.2
	c0.1-0.3,0.2-0.6,0.5-0.8c1.9-1.6,3.3-3.6,4.1-5.9c0.1-0.3,0.1-0.6-0.2-0.9c-5.9-5.4-6.9-10.9-10.5-16.9c-0.9-1.5-1-3.6,0-6
	c0.1-0.3,0.1-0.7,0-1c-0.2-0.6-0.4-1.2-0.6-1.7c-2.3-5.3,5.1-11,8.8-13.2c2.7-1.6,6.5-2.9,11.4-3.9c14.9-3.2,27.8-2.3,42.9-1.2
	C286,126,286.1,125.9,286.1,125.5z M288.2,63.9l0-3.3c0-0.2-0.1-0.3-0.3-0.4c-0.2-0.1-0.4,0-0.5,0c-0.1,0.1-0.2,0.2-0.2,0.5
	c-0.1,1.5,0.1,3,0.6,4.4c0.1,0.3,0.3,0.4,0.4,0c0.1-0.2,0.1-0.5,0.1-0.8C288.2,64.2,288.2,64.1,288.2,63.9z M311.7,66.4
	c-1.3-0.9-2.6-1.3-4.2-1.4c-5.1-0.3-10.2-0.3-15.3,0c-0.4,0-0.5,0.4-0.2,0.7l3.8,3.2c0.3,0.3,0.8,0.3,1.1,0c1-0.9,2.2-1.6,3.5-2.2
	c5.9-2.6,10,8.4,11.1,12.7c0.1,0.3,0.3,0.6,0.6,0.8l11.3,8.1c0.3,0.2,0.6,0.3,0.9,0.3l17.5,0c1,0,1.1-0.3,0.3-0.8
	C332,80.5,321.9,73.4,311.7,66.4z M291.9,68.2l-3.3-0.5c-0.2,0-0.3,0.1-0.3,0.2l-0.2,1.3c-0.1,1,0.5,1.9,1.4,2.1l0.5,0.1
	c0.9,0.1,1.8-0.6,1.9-1.6l0.2-1.3C292.2,68.4,292.1,68.3,291.9,68.2z M307.6,101.2c-6.7,1-6.7-8,0.4-6.3c0.4,0.1,0.7-0.1,0.7-0.5
	c0.1-3,0.2-31.8-9.1-25.1c-5.3,3.8-8.3,10.5-9.8,16.7c-0.1,0.4,0.1,0.6,0.5,0.6l1.5,0.1c0.4,0,0.6,0.2,0.8,0.6
	c0.7,2.2,0.2,6.5-3.3,5.1c-0.4-0.2-0.8,0.1-0.9,0.5c-1.2,10.8-1.3,21.7-0.1,32.5c0,0.5,0.2,1,0.5,1.5l9,12.8c0.4,0.5,0.7,0.5,1.1,0
	c7.9-11.6,10-24.5,9.8-38.4c0-0.3-0.1-0.6-0.3-1c-0.1-0.2-0.2-0.1-0.2,0c0,0.1,0,0.2-0.1,0.3C308,101,307.9,101.1,307.6,101.2z
	 M291.9,73.5c0.2,0.2,1-0.4,1.7-1.3c0.7-0.9,1-1.8,0.8-2c-0.2-0.2-1,0.4-1.7,1.3C292.1,72.4,291.7,73.3,291.9,73.5z M291,75.8
	c-0.6-1.6-1.1-1.6-1.6,0c-0.1,0.3,0,0.9,0.2,1.7c0.1,0.2,0.2,0.3,0.4,0.2C291,77.2,291.3,76.6,291,75.8z M321.8,92.7
	c0.2,0.1,0.5,0,0.5-0.2l0.1-2.2c0-0.1,0-0.2-0.1-0.3l-8.9-6.4c-0.2-0.2-0.5,0-0.5,0.3l0.4,2.4c0,0.1,0.1,0.2,0.1,0.2L321.8,92.7z
	 M291.2,90.3c0.4-0.7,0-1.7-0.8-2.1c-0.8-0.4-1.7-0.1-2.1,0.6c-0.4,0.7,0,1.7,0.8,2.1C289.9,91.3,290.8,91.1,291.2,90.3z
	 M307.9,131.5c3.6-11,4.6-22,4.3-34c-0.1-3.4-0.4-6.3-0.9-8.7c0-0.1,0-0.1-0.1-0.1c-0.1,0-0.1,0-0.3,0c0,0,0,0,0,0
	c0.5,17.6,0.3,36-9.7,51.3c-0.3,0.5-0.2,0.6,0.3,0.4C304.5,139.5,307.1,133.9,307.9,131.5z M313.9,89.9c1.5,14.7,0.8,32.9-5.6,46.3
	c-0.1,0.3-0.1,0.6,0,0.9c2.4,4.1,4.9,8.1,7.2,12.2c1.1,1.8,2.6,3.3,4.5,4.3c0.3,0.2,0.5,0.1,0.5-0.3l0-58.5c0-0.1,0-0.3-0.2-0.3
	l-6.2-4.7C314,89.7,313.9,89.8,313.9,89.9z M342.6,94c0.3,0,0.6-0.2,0.7-0.5l0.5-2.1c0.1-0.4-0.2-0.8-0.7-0.8l-17.7,0
	c-0.4,0-0.7,0.3-0.7,0.7l0,2.1c0,0.4,0.3,0.7,0.7,0.7L342.6,94z M339.6,96.1h-16.8c-0.1,0-0.2,0.1-0.2,0.2v55.8
	c0,1.4,0.6,2.6,1.4,2.6h14.5c0.8,0,1.4-1.2,1.4-2.6V96.4C339.8,96.2,339.7,96.1,339.6,96.1z M306.9,99.1L307,97
	c0-0.3-0.2-0.5-0.4-0.5h-0.1c-1.3-0.1-2.4,0.4-2.4,1.2l0,0.3c-0.1,0.8,0.9,1.5,2.2,1.6h0.1C306.6,99.5,306.8,99.3,306.9,99.1z
	 M286.5,128.5c-15.2-2.1-31.7-2.5-46.8,1.6c-3.1,0.8-20.3,8.1-12.1,13c7.1,4.3,15.5,5.5,23.6,5.9c15.2,0.7,30-1.8,44.3-7.5
	c0.4-0.1,0.5-0.4,0.2-0.7l-8.1-11.6C287.4,128.9,287,128.6,286.5,128.5z M307.2,139.2c-0.2-0.3-0.6-0.3-0.8,0
	c-1.3,1.9-3,3.2-5.2,3.7c-0.4,0.1-0.7,0.3-0.9,0.5l-3.4,3c-0.2,0.2,0,0.5,0.2,0.4l13.2-1.1c0.4,0,0.5-0.2,0.3-0.5L307.2,139.2z
	 M242.1,150.1c-6.4-0.9-13.4-2.5-17.9-7.2c-0.2-0.3-0.3-0.2-0.3,0.1c0.3,3.2,3.1,4.4,6.1,5.3c18.7,5.1,38.4,5.9,57.2,0.6
	c3.3-0.9,6.9-2.7,11-5.2c0.2-0.1,0.2-0.2,0.1-0.4l-0.1-0.2c-0.1-0.3-0.4-0.4-0.7-0.3C279.8,150.4,261.3,152.8,242.1,150.1z
	 M286.4,150.7c-19.6,5.5-40.6,4.4-60.2-2c-1.3-0.4-1.7,0-1.3,1.3l1,3.2c0.4,1.1,1.2,2,2.3,2.4c2.4,0.9,5.6,1.8,9.5,2.7
	c17.1,3.7,34.8,3.5,51.2-2.4c2.5-0.9,4.7-1.4,6.8-1.6c6.5-0.6,12.9-1.1,19.4-1.4c0.1,0,0.1-0.1,0.1-0.2l-3-4.7
	c-0.1-0.1-0.2-0.2-0.4-0.2c-5.8,0.5-11.7,0.9-17.6,1.4C291.9,149.4,289.3,149.9,286.4,150.7z M290.4,187.4c0.6-0.1,0.9,0.2,1,0.8
	l1.7,11.3c0.1,0.8,0.9,1.4,1.7,1.3l4.8-0.4c0.9-0.1,1.3-0.6,1.1-1.4L296,178c-0.1-0.5,0-1.1,0.4-1.4c5.6-5.3,10.7-12.5,11.7-20.4
	c0.1-0.4-0.1-0.6-0.5-0.6c-6.2,0.2-12.4,0.3-18.4,2.6c-18.7,7.1-41.5,6-60,0.2c-0.8-0.3-1,0-0.6,0.7c6.1,12.1,15.9,17.4,29.5,17.9
	c11,0.4,22-2,30-10.2c0.5-0.5,1-0.5,1.5,0l0.2,0.2c0.4,0.4,0.4,0.8,0,1.2c-10.4,10.9-27,12.5-40.9,9.9c-0.2,0-0.4,0.1-0.5,0.3
	l-5,23.4c-0.1,0.3,0.1,0.6,0.4,0.7c3.4,1.1,6.9,1.8,10.5,2.1c10.2,0.9,20.4,1.2,30.7,0.8c3.4-0.1,4.3-2,6.3-4.4
	c0.3-0.3,0.4-0.8,0.3-1.2l-1.9-12.1c0-0.2,0.1-0.4,0.4-0.5L290.4,187.4z M242.5,176.1l-6.4-4c-0.2-0.1-0.3-0.1-0.4,0.1
	c-1,2.2-2.3,4.3-3.9,6.1c-0.2,0.2-0.3,0.5-0.4,0.8c-0.8,6.3-0.2,12.4,1.9,18.2c0.7,2,1.4,2,2.1,0l7.2-20.7
	C242.8,176.4,242.7,176.3,242.5,176.1z M247.1,178.2c0-0.2-0.1-0.4-0.2-0.5l-2-1.1c-0.2-0.1-0.5,0-0.6,0.3l-7.9,23
	c-0.1,0.2,0.1,0.5,0.3,0.6l4.7,1.3c0.2,0.1,0.5-0.1,0.5-0.3L247.1,178.2z"/>
<path class="st0" d="M288.3,64.4c0.1,0.3,0,0.5-0.1,0.8c-0.1,0.3-0.3,0.3-0.4,0c-0.5-1.4-0.7-2.9-0.6-4.4c0-0.2,0.1-0.4,0.2-0.5
	c0.1-0.1,0.3-0.1,0.5,0c0.2,0,0.3,0.2,0.3,0.4l0,3.3C288.2,64.1,288.2,64.2,288.3,64.4z"/>
<path class="st0" d="M311.7,66.4c10.2,7,20.3,14.1,30.3,21.3c0.8,0.6,0.7,0.8-0.3,0.8l-17.5,0c-0.3,0-0.6-0.1-0.9-0.3L312,80.1
	c-0.3-0.2-0.5-0.5-0.6-0.8c-1.1-4.3-5.2-15.3-11.1-12.7c-1.3,0.6-2.5,1.3-3.5,2.2c-0.3,0.3-0.8,0.3-1.1,0l-3.8-3.2
	c-0.3-0.2-0.1-0.7,0.2-0.7c5.1-0.2,10.3-0.2,15.3,0C309,65,310.4,65.5,311.7,66.4z"/>
<path class="st0" d="M291.9,68.2c0.2,0,0.3,0.2,0.2,0.3l-0.2,1.3c-0.1,1-1,1.7-1.9,1.6l-0.5-0.1c-0.9-0.1-1.6-1.1-1.4-2.1l0.2-1.3
	c0-0.2,0.2-0.3,0.3-0.2L291.9,68.2z"/>
<path class="st0" d="M308.1,100.7c0-0.1,0-0.2,0.1-0.3c0-0.2,0.1-0.2,0.2,0c0.2,0.3,0.3,0.7,0.3,1c0.2,13.8-1.9,26.8-9.8,38.4
	c-0.4,0.5-0.7,0.5-1.1,0l-9-12.8c-0.3-0.4-0.5-1-0.5-1.5c-1.1-10.8-1.1-21.7,0.1-32.5c0.1-0.4,0.5-0.7,0.9-0.5
	c3.5,1.4,3.9-2.9,3.3-5.1c-0.1-0.4-0.4-0.6-0.8-0.6l-1.5-0.1c-0.4,0-0.6-0.2-0.5-0.6c1.5-6.2,4.4-12.9,9.8-16.7
	c9.3-6.7,9.2,22.1,9.1,25.1c0,0.4-0.3,0.6-0.7,0.5c-7-1.8-7.1,7.3-0.4,6.3C307.9,101.1,308,101,308.1,100.7z"/>
<ellipse transform="matrix(0.6074 -0.7944 0.7944 0.6074 58.0109 261.1362)" class="st0" cx="293.2" cy="71.9" rx="2" ry="0.6"/>
<path class="st0" d="M291,75.8c0.3,0.7-0.1,1.4-1,1.9c-0.2,0.1-0.3,0.1-0.4-0.2c-0.3-0.8-0.3-1.4-0.2-1.7
	C289.9,74.2,290.4,74.2,291,75.8z"/>
<path class="st0" d="M321.8,92.7l-8.4-6.1c-0.1,0-0.1-0.1-0.1-0.2l-0.4-2.4c-0.1-0.3,0.3-0.5,0.5-0.3l8.9,6.4
	c0.1,0.1,0.1,0.2,0.1,0.3l-0.1,2.2C322.2,92.7,322,92.8,321.8,92.7z"/>
<ellipse transform="matrix(0.4509 -0.8926 0.8926 0.4509 79.1236 307.8336)" class="st0" cx="289.8" cy="89.6" rx="1.5" ry="1.6"/>
<path class="st0" d="M312.2,97.5c0.3,11.9-0.7,23-4.3,34c-0.8,2.4-3.4,8-6.3,9c-0.5,0.2-0.6,0-0.3-0.4c10-15.3,10.2-33.7,9.7-51.3
	c0,0,0,0,0,0c0.1,0,0.2,0,0.3,0c0.1,0,0.1,0,0.1,0.1C311.8,91.2,312.1,94.1,312.2,97.5z"/>
<path class="st0" d="M308.2,136.1c6.4-13.3,7.1-31.6,5.6-46.3c0-0.1,0.1-0.2,0.3-0.1l6.2,4.7c0.1,0.1,0.2,0.2,0.2,0.3l0,58.5
	c0,0.4-0.2,0.5-0.5,0.3c-1.9-1-3.4-2.5-4.5-4.3c-2.4-4.1-4.8-8.1-7.2-12.2C308.1,136.8,308.1,136.4,308.2,136.1z"/>
<path class="st0" d="M342.6,94l-17.2,0c-0.4,0-0.7-0.3-0.7-0.7l0-2.1c0-0.4,0.3-0.7,0.7-0.7l17.7,0c0.4,0,0.8,0.4,0.7,0.8l-0.5,2.1
	C343.3,93.8,343,94,342.6,94z"/>
<path class="st0" d="M339.6,96.1c0.1,0,0.2,0.1,0.2,0.2v55.8c0,1.4-0.6,2.6-1.4,2.6H324c-0.8,0-1.4-1.2-1.4-2.6V96.4
	c0-0.1,0.1-0.2,0.2-0.2H339.6z"/>
<path class="st0" d="M306.9,99.1c0,0.3-0.3,0.5-0.5,0.5h-0.1c-1.3-0.1-2.3-0.8-2.2-1.6l0-0.3c0.1-0.8,1.1-1.3,2.4-1.2h0.1
	c0.3,0,0.5,0.3,0.4,0.5L306.9,99.1z"/>
<path d="M160.2,133h-36c-2,0-3.7-1.7-3.7-3.7l0-1c0-3.1,1.6-4.6,4.7-4.6l35.1,0c0.3,0,0.6-0.3,0.6-0.6l-0.1-12.1
	c0-0.3,0.1-0.4,0.4-0.2l30.2,17.2c0.4,0.2,0.4,0.7,0,0.9L161.3,146c-0.2,0.1-0.4,0-0.4-0.2l0-12.1C160.9,133.2,160.7,133,160.2,133z
	"/>
<path class="st0" d="M239.8,130.1c15.1-4.1,31.6-3.7,46.8-1.6c0.5,0.1,0.9,0.3,1.1,0.7l8.1,11.6c0.2,0.3,0.2,0.6-0.2,0.7
	c-14.3,5.7-29.1,8.2-44.3,7.5c-8.1-0.4-16.5-1.6-23.6-5.9C219.5,138.3,236.6,130.9,239.8,130.1z M288.8,136.7
	c-0.2-5-12.2-8.6-26.7-8.1c-14.6,0.5-26.3,5-26.1,10c0.2,5,12.2,8.6,26.7,8.1C277.3,146.2,289,141.7,288.8,136.7z"/>
<path d="M288.8,136.7c0.2,5-11.5,9.4-26.1,10c-14.6,0.5-26.6-3.1-26.7-8.1c-0.2-5,11.5-9.4,26.1-10
	C276.7,128.1,288.6,131.7,288.8,136.7z M286.3,136.8c-0.1-3.7-10.9-6.4-24.1-5.9c-13.2,0.5-23.8,3.9-23.7,7.6
	c0.1,3.7,10.9,6.4,24.1,5.9C275.9,143.9,286.5,140.5,286.3,136.8z"/>
<ellipse transform="matrix(0.9994 -3.489950e-02 3.489950e-02 0.9994 -4.6427 9.2422)" class="st0" cx="262.4" cy="137.6" rx="23.9" ry="6.8"/>
<path class="st0" d="M307.2,139.2l3.3,6c0.2,0.3,0.1,0.5-0.3,0.5l-13.2,1.1c-0.2,0-0.4-0.3-0.2-0.4l3.4-3c0.3-0.2,0.6-0.4,0.9-0.5
	c2.2-0.6,4-1.8,5.2-3.7C306.6,138.9,307,138.9,307.2,139.2z"/>
<path class="st0" d="M242.1,150.1c19.2,2.7,37.7,0.3,55.4-7.2c0.3-0.1,0.6,0,0.7,0.3l0.1,0.2c0.1,0.1,0.1,0.3-0.1,0.4
	c-4.1,2.5-7.8,4.3-11,5.2c-18.8,5.3-38.4,4.5-57.2-0.6c-3-0.8-5.8-2.1-6.1-5.3c0-0.3,0.1-0.4,0.3-0.1
	C228.7,147.6,235.7,149.2,242.1,150.1z"/>
<path class="st0" d="M226.2,148.7c19.7,6.4,40.6,7.5,60.2,2c2.9-0.8,5.5-1.3,7.9-1.5c5.9-0.4,11.8-0.9,17.6-1.4
	c0.2,0,0.3,0.1,0.4,0.2l3,4.7c0,0.1,0,0.2-0.1,0.2c-6.5,0.3-13,0.8-19.4,1.4c-2.1,0.2-4.4,0.8-6.8,1.6c-16.4,5.9-34.2,6.1-51.2,2.4
	c-3.9-0.9-7.1-1.8-9.5-2.7c-1.1-0.4-1.9-1.3-2.3-2.4l-1-3.2C224.4,148.7,224.9,148.3,226.2,148.7z"/>
<path class="st0" d="M289.8,187.9l1.9,12.1c0.1,0.4-0.1,0.8-0.3,1.2c-2,2.3-2.9,4.2-6.3,4.4c-10.3,0.4-20.5,0.1-30.7-0.8
	c-3.6-0.3-7.1-1-10.5-2.1c-0.3-0.1-0.5-0.4-0.4-0.7l5-23.4c0.1-0.2,0.3-0.4,0.5-0.3c13.9,2.6,30.5,1,40.9-9.9c0.4-0.4,0.4-0.8,0-1.2
	l-0.2-0.2c-0.5-0.5-1-0.5-1.5,0c-8,8.2-19,10.6-30,10.2c-13.6-0.6-23.4-5.9-29.5-17.9c-0.4-0.7-0.2-1,0.6-0.7
	c18.5,5.8,41.3,6.9,60-0.2c6-2.3,12.2-2.3,18.4-2.6c0.4,0,0.6,0.2,0.5,0.6c-1,7.9-6.1,15.1-11.7,20.4c-0.4,0.4-0.6,0.9-0.4,1.4
	l4.6,20.9c0.2,0.9-0.2,1.4-1.1,1.4l-4.8,0.4c-0.8,0.1-1.5-0.5-1.7-1.3l-1.7-11.3c-0.1-0.6-0.4-0.9-1-0.8l-0.3,0
	C289.9,187.4,289.8,187.6,289.8,187.9z"/>
<path class="st0" d="M242.5,176.1c0.2,0.1,0.3,0.3,0.2,0.5l-7.2,20.7c-0.7,2-1.4,2-2.1,0c-2.1-5.9-2.7-12-1.9-18.2
	c0-0.3,0.2-0.6,0.4-0.8c1.6-1.8,2.9-3.9,3.9-6.1c0.1-0.2,0.2-0.2,0.4-0.1L242.5,176.1z"/>
<path class="st0" d="M247.1,178.2l-5.2,23.2c0,0.3-0.3,0.4-0.5,0.3l-4.7-1.3c-0.2-0.1-0.4-0.3-0.3-0.6l7.9-23
	c0.1-0.3,0.4-0.4,0.6-0.3l2,1.1C247,177.8,247.1,178,247.1,178.2z"/>
</svg>
