<?xml version="1.0" encoding="utf-8"?>
<!-- Generator: Adobe Illustrator 24.1.0, SVG Export Plug-In . SVG Version: 6.00 Build 0)  -->
<svg version="1.1" id="Capa_1" xmlns="http://www.w3.org/2000/svg" xmlns:xlink="http://www.w3.org/1999/xlink" x="0px" y="0px"
	 viewBox="0 0 250 250" style="enable-background:new 0 0 250 250;" xml:space="preserve">
<style type="text/css">
	.st0{fill:#68210F;}
	.st1{fill:#F7E7E0;}
	.st2{fill:#FBA51A;}
	.st3{fill:#FFFFFF;}
</style>
<path d="M145.9,73.8c4.8,6.8,9.8,14.4,10.5,23.1c0.6,7.4,4.8,14.3,9.2,20.8c6,9,1.6,12.9-7.5,14c-0.6,0.1-1,0.4-0.9,1.1l0.3,8.7
	c0,0.5-0.4,0.9-0.9,0.8c-7.6-1-23.1-1.8-26.2,7.8c-1.3,3.9,0.1,7.3,4.1,10c1.8,1.3,4.7,2.2,6.2,4.1c6.3,8.3-14.8,17.3-20.2,19.1
	c-11.3,3.8-22.5,3.2-33.6-1.7c-0.3-0.1-0.7,0-0.8,0.4l-3.9,12.7c-0.2,0.5-0.7,0.8-1.2,0.8l-33.4-4.6c-0.5-0.1-0.7-0.3-0.6-0.8
	l2.2-16.3c0-0.4-0.1-0.7-0.4-1C19.6,145.1,1.5,109.8,22,70c0.2-0.4-0.1-0.9-0.5-0.9l-2.8-0.2c-1.1-0.1-1.8-1.2-1.4-2.2
	c0.3-0.7,0.8-1.2,1.6-1.6c2.6-1.3,5.2-2.5,7.9-3.4c0.3-0.1,0.5-0.4,0.5-0.8l-0.2-8.3c0-0.4,0.4-0.6,0.7-0.4l4.6,3.3
	c0.4,0.3,1,0.2,1.3-0.2C42.8,45,58.3,39.2,71.5,37c22.1-3.8,43.9-1.8,61.8,11.8c6.3,4.7,11.4,12.3,16.6,18.6
	c0.6,0.7,0.5,1.8-0.2,2.4l-3.8,3.2C145.7,73.1,145.6,73.5,145.9,73.8z M31.6,59.3c-0.4-0.1-0.8,0.3-0.7,0.7c0.4,3.5-2.1,4.7-3.4,7
	c-3.3,5.9-5.9,11.8-7.6,17.6c-9.9,32.6,6.1,61.9,29.6,84c0.3,0.3,0.6,0.3,0.9,0.2c4.6-1.9,9.3-3.1,14.2-3.6c1.3-0.2,1.8-0.9,1.5-2.2
	c-2.7-10.9-3.3-22.7,1.1-33.3c0.2-0.6,0-1.2-0.6-1.5c-11.7-5.1-12.7-29.6,2.6-28.8c5.7,0.3,9.7,3.7,12,10.3c0.2,0.6,0.5,0.6,0.8,0.1
	c3.1-5.3,7.4-9.9,12.7-13.8c1.6-1.2,4.6-0.2,6.7-1.4c5.6-3.2,5.8-14.3,9-20c7-12.7,22-11.3,33.4-6c0.7,0.3,1.4,0,1.7-0.6
	c0.1-0.3,0-0.7-0.4-1.2c-4.4-5.3-8.6-11.4-14-15.3c-23-17-55.2-15.7-80.1-4.2c-5,2.3-10.2,5.3-13.7,9.8
	C35.5,59.2,34.3,59.8,31.6,59.3z M69.7,167.7c-4.9,0.4-9.8,1.3-14.5,2.5c-1.4,0.4-2.3,1.4-2.5,3c-0.6,4.5-1.2,9.1-1.8,13.7
	c-0.1,0.7,0.2,1,0.9,1.1l27.3,3.6c0.3,0,0.5-0.1,0.6-0.4l4.1-13.2c0.3-0.9,0.9-1.2,1.8-0.8c12.4,6.2,24.8,6.7,37.4,1.3
	c6-2.6,11.7-5.3,15-10c0.6-0.9,0.4-2.1-0.6-2.7c-6.1-3.4-11.7-6.6-10.8-14.9c1.4-12.1,17.3-13.4,26.5-12.3c0.3,0,0.6-0.2,0.6-0.6
	l0.1-8.7c0-0.4,0.3-0.7,0.7-0.7c2.9-0.2,13.1-0.5,9.7-6.2c-2.4-4.1-4.8-8.1-7.1-12.2c-2.5-4.3-3.5-8.4-4.1-13.2
	c-0.3-2.7-0.8-4.8-1.5-6.5c-2.2-5.3-9.5-19.6-15.3-21.2c-33.4-9.2-18.4,29.9-38.7,29.4c-0.3,0-0.7,0.1-0.9,0.3
	c-6.8,4.9-14.3,12.3-12.3,21.9c0.1,0.3-0.1,0.5-0.4,0.5l-7.6,1c-0.3,0-0.5-0.2-0.4-0.5c1.8-4.7,3-12-0.1-16.2c-1.5-2-3.5-3.1-6-3.3
	c-7.4-0.6-9.7,7.7-8.2,13.4c1.7,6.4,4.1,7.1,8.9,10.8c0.7,0.6,1,1.5,0.6,2.4c-1.3,3.2-2.8,6.7-3.2,10.2c-1.2,9.5,0.5,18.4,2.3,27.7
	C70.3,167.5,70.1,167.7,69.7,167.7z"/>
<path class="st0" d="M31.6,59.3c2.7,0.6,3.9-0.1,5.6-2.3c3.5-4.5,8.7-7.4,13.7-9.8c25-11.5,57.1-12.8,80.1,4.2c5.4,4,9.5,10,14,15.3
	c0.4,0.5,0.6,0.9,0.4,1.2c-0.3,0.6-1,0.9-1.7,0.6c-11.3-5.3-26.4-6.7-33.4,6c-3.1,5.7-3.4,16.8-9,20c-2.1,1.2-5.1,0.2-6.7,1.4
	c-5.3,3.9-9.6,8.5-12.7,13.8c-0.3,0.6-0.6,0.5-0.8-0.1c-2.3-6.6-6.4-10.1-12-10.3c-15.3-0.7-14.3,23.8-2.6,28.8
	c0.6,0.2,0.8,0.9,0.6,1.5c-4.4,10.5-3.8,22.3-1.1,33.3c0.3,1.3-0.2,2-1.5,2.2c-4.9,0.6-9.7,1.8-14.2,3.6c-0.3,0.1-0.6,0.1-0.9-0.2
	c-23.5-22.1-39.5-51.4-29.6-84c1.8-5.8,4.3-11.7,7.6-17.6c1.3-2.2,3.8-3.5,3.4-7C30.8,59.5,31.2,59.2,31.6,59.3z"/>
<path class="st1" d="M70.2,167.1c-1.8-9.3-3.5-18.2-2.3-27.7c0.4-3.5,1.9-6.9,3.2-10.2c0.3-0.9,0.1-1.8-0.6-2.4
	c-4.9-3.7-7.2-4.4-8.9-10.8c-1.5-5.7,0.8-14,8.2-13.4c2.5,0.2,4.5,1.3,6,3.3c3.1,4.2,1.8,11.5,0.1,16.2c-0.1,0.3,0.1,0.5,0.4,0.5
	l7.6-1c0.3,0,0.5-0.2,0.4-0.5c-2-9.6,5.5-17,12.3-21.9c0.3-0.2,0.6-0.3,0.9-0.3c20.4,0.6,5.3-38.6,38.7-29.4
	c5.8,1.6,13.1,15.9,15.3,21.2c0.7,1.6,1.2,3.8,1.5,6.5c0.6,4.7,1.6,8.8,4.1,13.2c2.3,4.1,4.7,8.1,7.1,12.2c3.4,5.8-6.8,6.1-9.7,6.2
	c-0.4,0-0.7,0.3-0.7,0.7l-0.1,8.7c0,0.3-0.3,0.6-0.6,0.6c-9.1-1.1-25.1,0.2-26.5,12.3c-0.9,8.2,4.7,11.4,10.8,14.9
	c1,0.5,1.2,1.8,0.6,2.7c-3.3,4.7-9,7.4-15,10c-12.6,5.4-25,4.9-37.4-1.3c-0.9-0.4-1.5-0.2-1.8,0.8l-4.1,13.2
	c-0.1,0.2-0.3,0.4-0.6,0.4L51.8,188c-0.6-0.1-0.9-0.5-0.9-1.1c0.6-4.6,1.2-9.1,1.8-13.7c0.2-1.6,1-2.6,2.5-3
	c4.8-1.3,9.6-2.1,14.5-2.5C70.1,167.7,70.3,167.5,70.2,167.1z M146.6,94.4c-8.4-0.4-14.2,2.4-19.8,8.4c-0.4,0.4-0.3,1.1,0.1,1.5
	l0.2,0.2c0.6,0.5,1.4,0.4,1.9-0.2c4.7-5.4,10.7-7.8,18-7.4c0.6,0,1-0.4,1-1v-0.3C147.9,94.9,147.4,94.5,146.6,94.4z M143.3,107.4
	c0-2.5-2.1-4.6-4.6-4.6s-4.6,2.1-4.6,4.6s2.1,4.6,4.6,4.6C141.3,112,143.3,110,143.3,107.4z"/>
<path d="M126.8,102.8c5.6-6,11.4-8.8,19.8-8.4c0.8,0,1.3,0.5,1.3,1.3V96c0,0.6-0.4,1-1,1c-7.3-0.5-13.3,2-18,7.4
	c-0.5,0.6-1.3,0.6-1.9,0.2l-0.2-0.2C126.5,103.9,126.4,103.3,126.8,102.8z"/>
<circle cx="138.7" cy="107.4" r="4.6"/>
<path d="M217.6,168.6c-0.5,6.8-1.2,12.9-2.2,18.4c-0.7,3.7-1.9,7-4.9,9.5c-0.2,0.2-0.4,0.4-0.4,0.7l-0.2,16.5c0,0.7-0.6,1.3-1.4,1.3
	l-28.9-1.4c-0.4,0-0.6-0.2-0.6-0.6c0.2-5.2,0.4-10.3,0.6-15.5c0-0.7-0.1-1.3-0.4-1.9c-1.4-3.1-2.4-6.2-3.1-9.5
	c-1.5-7-4.2-13.7-8.1-20.1c-0.4-0.6-1-0.9-1.7-0.8c-8.6,1.2-24.4,2.6-28.3-7.8c-2.5-6.6,2.3-12.8,9.2-12.9c7.8-0.1,15.6,3,22.4,6.7
	c3.8,2.1,6.8,2,10.9,1.7c0.3,0,0.6-0.2,0.9-0.4c3.5-3,7.2-4.9,11.3-3.8c7.9,2.2,15.9,3.1,23.9,2.8c0.4,0,0.9,0.2,1.2,0.5l4.7,5.9
	c0.2,0.3,0.5,0.4,0.8,0.5c3.2,1,17.3,3.1,12.8,9.5c-2.1,3.1-4.8,4-8.6,2.8c-3.1-1-6.2-1.9-9.3-2.7
	C217.8,168.1,217.6,168.2,217.6,168.6z M141.4,156.2c2.6,7.1,13.7,6.7,19.5,6.1c4.6-0.4,10.2-2.7,15.7-3.1c0.8-0.1,1.6-0.6,1.9-1.3
	l0.2-0.4c0.4-0.8,0.1-1.1-0.7-1.1c-1.6,0.1-3.2,0.1-4.8,0c-3.3-0.2-5.9-2.5-9-3.8c-5-2.8-15.5-6.5-20.8-3.5
	C141.1,150.5,140.4,152.9,141.4,156.2z M206.5,194c0-0.2,0.1-0.3,0.3-0.4c2.1-1,3.4-2,3.8-3c3-8.1,3.5-18.2,4-26.9
	c0.1-1.3,0.9-3.2,2.5-5.6c0.2-0.3,0.2-0.6,0.1-0.8c-0.4-1.4-1.1-2.2-2.3-2.2c-7.4-0.2-13.9-0.8-19.5-2c-3.5-0.7-5.7-1-6.9-0.8
	c-8.4,1.5-9.4,16.7-9.8,23.2c-0.4,6.7,1.1,11.8,3.6,17.9c1.7,4.1,0.4,11.2,0.3,15.8c0,0.8,0.4,1.3,1.2,1.3l21.9,0.9
	c0.4,0,0.7-0.3,0.7-0.7L206.5,194z M232.7,166.5c0.3-1-0.3-2-1.3-2.2l-10.9-2.9c-1-0.3-2,0.3-2.2,1.3v0.1c-0.3,1,0.3,2,1.3,2.2
	l10.9,2.9c1,0.3,2-0.3,2.2-1.3V166.5z M176.5,164.1c0-0.2-0.1-0.4-0.3-0.4l-4.6,0.1c-0.3,0-0.4,0.3-0.3,0.5l3.6,7
	c0.1,0.3,0.6,0.2,0.6-0.1L176.5,164.1z"/>
<path class="st2" d="M164.2,152.6c2.6,4.6-1.2,7.3-5.2,7.9c-6.2,1-12.1-0.4-17.7-4.3c-1-3.3-0.3-5.7,2.1-7.1
	C148.8,146,159.3,149.8,164.2,152.6z"/>
<path class="st1" d="M206.5,194l-0.1,16.6c0,0.4-0.3,0.7-0.7,0.7l-21.9-0.9c-0.8,0-1.2-0.5-1.2-1.3c0.2-4.6,1.4-11.7-0.3-15.8
	c-2.6-6.1-4.1-11.2-3.6-17.9c0.4-6.5,1.4-21.7,9.8-23.2c1.1-0.2,3.4,0.1,6.9,0.8c5.6,1.2,12.1,1.8,19.5,2c1.2,0,1.9,0.8,2.3,2.2
	c0.1,0.3,0,0.6-0.1,0.8c-1.6,2.5-2.5,4.4-2.5,5.6c-0.5,8.6-1,18.7-4,26.9c-0.4,1-1.6,2-3.8,3C206.6,193.7,206.5,193.8,206.5,194z"/>
<path class="st3" d="M164.2,152.6c3,1.3,5.7,3.6,9,3.8c1.6,0.1,3.2,0.1,4.8,0c0.9-0.1,1.1,0.3,0.7,1.1l-0.2,0.4
	c-0.4,0.8-1.1,1.3-1.9,1.3c-5.5,0.4-11.1,2.7-15.7,3.1c-5.7,0.6-16.9,0.9-19.5-6.1c5.6,3.9,11.4,5.3,17.7,4.3
	C163.1,159.8,166.9,157.1,164.2,152.6z"/>
<path class="st3" d="M220.5,161.4l10.9,2.9c1,0.3,1.5,1.2,1.3,2.2v0.1c-0.3,1-1.2,1.5-2.2,1.3l-10.9-2.9c-1-0.3-1.5-1.2-1.3-2.2
	v-0.1C218.5,161.7,219.5,161.1,220.5,161.4z"/>
<path class="st1" d="M176.5,164.1l-1,7.1c0,0.3-0.5,0.4-0.6,0.1l-3.6-7c-0.1-0.2,0-0.5,0.3-0.5l4.6-0.1
	C176.3,163.7,176.5,163.9,176.5,164.1z"/>
</svg>
