<?xml version="1.0" encoding="UTF-8" standalone="no"?>
<!DOCTYPE svg PUBLIC "-//W3C//DTD SVG 1.1//EN" "http://www.w3.org/Graphics/SVG/1.1/DTD/svg11.dtd">
<svg xmlns="http://www.w3.org/2000/svg" version="1.1" viewBox="0.00 0.00 206.00 180.00">
<g stroke-width="2.00" fill="none" stroke-linecap="butt">
<path stroke="#ffc200" vector-effect="non-scaling-stroke" d="
  M 132.68 99.88
  Q 134.63 85.87 132.37 72.00
  Q 131.68 67.76 129.65 63.82
  Q 126.24 57.23 123.14 53.35
  Q 118.47 47.52 110.73 45.05
  Q 100.05 41.65 90.36 41.38
  Q 80.18 41.10 70.00 41.48
  C 66.97 41.60 64.14 41.71 61.77 43.85
  C 56.32 48.76 52.12 57.54 49.81 64.35
  Q 46.87 72.98 45.61 81.26
  Q 42.99 98.38 51.23 114.05
  Q 53.22 117.83 56.43 120.54
  C 65.74 128.40 77.38 132.79 89.67 132.62
  Q 93.83 132.56 98.00 132.36
  C 117.48 131.39 125.82 118.39 132.21 101.72
  Q 132.55 100.82 132.68 99.88"
/>
<path stroke="#ffdd24" vector-effect="non-scaling-stroke" d="
  M 100.94 120.63
  C 106.89 118.61 114.04 116.23 116.91 110.25
  C 118.77 106.38 121.41 102.06 122.59 98.76
  C 127.78 84.17 119.98 70.40 113.63 57.83
  Q 113.26 57.10 111.72 56.80
  Q 98.84 54.29 90.22 53.41
  Q 90.06 53.39 84.31 52.52
  Q 76.70 51.37 70.84 55.55
  Q 64.39 60.14 60.87 67.37
  C 55.56 78.25 55.83 96.35 61.99 107.06
  C 69.74 120.53 86.60 125.49 100.94 120.63"
/>
</g>
<path fill="#ffab00" d="
  M 88.53 4.89
  A 1.08 1.08 0.0 0 1 89.27 4.10
  Q 90.74 3.66 90.94 5.25
  Q 92.60 18.64 96.51 32.05
  A 1.10 1.10 0.0 0 1 95.46 33.46
  L 83.23 33.45
  A 1.04 1.04 0.0 0 1 82.22 32.17
  L 88.53 4.89
  Z"
/>
<path fill="#ffab00" d="
  M 64.47 10.62
  Q 70.04 21.56 74.18 32.57
  A 1.23 1.23 0.0 0 1 73.25 34.21
  L 60.50 36.50
  A 0.62 0.62 0.0 0 1 59.77 35.87
  Q 60.04 20.97 59.52 6.00
  Q 59.49 5.15 59.90 4.59
  A 0.77 0.77 0.0 0 1 61.18 4.65
  Q 62.95 7.65 64.47 10.62
  Z"
/>
<path fill="#ffab00" d="
  M 116.55 38.99
  L 105.16 34.53
  Q 104.52 34.28 104.81 33.66
  Q 110.17 22.32 115.93 11.34
  Q 117.62 8.12 119.75 5.39
  A 0.70 0.69 -23.4 0 1 120.99 5.88
  L 117.84 38.19
  Q 117.71 39.44 116.55 38.99
  Z"
/>
<path fill="#ffab00" d="
  M 35.08 24.39
  Q 44.84 30.00 55.54 34.20
  A 1.20 1.20 0.0 0 1 56.05 36.06
  L 48.38 45.81
  A 0.61 0.60 42.8 0 1 47.45 45.84
  Q 37.87 35.20 29.68 23.70
  Q 29.23 23.06 29.30 22.48
  A 0.73 0.73 0.0 0 1 30.33 21.92
  Q 32.67 23.01 35.08 24.39
  Z"
/>
<path fill="#ffab00" d="
  M 131.66 52.05
  L 123.77 41.96
  A 0.56 0.56 0.0 0 1 123.96 41.11
  Q 137.47 34.23 150.51 26.79
  Q 151.33 26.33 151.93 26.67
  A 0.89 0.89 0.0 0 1 152.24 27.94
  Q 143.80 40.60 133.81 52.10
  Q 132.70 53.38 131.66 52.05
  Z"
/>
<path fill="#ffab00" d="
  M 101.90 40.88
  C 109.89 42.76 116.14 44.39 121.94 49.50
  Q 124.06 51.37 126.50 55.38
  C 128.24 58.24 130.41 60.98 131.67 63.90
  C 136.06 74.08 135.28 86.89 134.96 95.75
  C 134.85 98.75 134.12 101.92 132.89 104.91
  C 124.80 124.60 114.33 134.48 92.51 134.60
  Q 85.77 134.64 80.54 133.68
  C 70.01 131.75 55.53 125.39 50.07 115.48
  Q 42.50 101.77 43.32 85.96
  C 43.54 81.60 44.76 76.80 45.71 72.26
  Q 49.37 54.62 61.45 41.37
  Q 61.79 41.01 62.26 40.88
  Q 65.13 40.09 67.00 39.99
  Q 81.91 39.21 92.24 39.54
  Q 96.82 39.69 101.90 40.88
  Z
  M 132.68 99.88
  Q 134.63 85.87 132.37 72.00
  Q 131.68 67.76 129.65 63.82
  Q 126.24 57.23 123.14 53.35
  Q 118.47 47.52 110.73 45.05
  Q 100.05 41.65 90.36 41.38
  Q 80.18 41.10 70.00 41.48
  C 66.97 41.60 64.14 41.71 61.77 43.85
  C 56.32 48.76 52.12 57.54 49.81 64.35
  Q 46.87 72.98 45.61 81.26
  Q 42.99 98.38 51.23 114.05
  Q 53.22 117.83 56.43 120.54
  C 65.74 128.40 77.38 132.79 89.67 132.62
  Q 93.83 132.56 98.00 132.36
  C 117.48 131.39 125.82 118.39 132.21 101.72
  Q 132.55 100.82 132.68 99.88
  Z"
/>
<path fill="#ffd800" d="
  M 132.68 99.88
  Q 132.55 100.82 132.21 101.72
  C 125.82 118.39 117.48 131.39 98.00 132.36
  Q 93.83 132.56 89.67 132.62
  C 77.38 132.79 65.74 128.40 56.43 120.54
  Q 53.22 117.83 51.23 114.05
  Q 42.99 98.38 45.61 81.26
  Q 46.87 72.98 49.81 64.35
  C 52.12 57.54 56.32 48.76 61.77 43.85
  C 64.14 41.71 66.97 41.60 70.00 41.48
  Q 80.18 41.10 90.36 41.38
  Q 100.05 41.65 110.73 45.05
  Q 118.47 47.52 123.14 53.35
  Q 126.24 57.23 129.65 63.82
  Q 131.68 67.76 132.37 72.00
  Q 134.63 85.87 132.68 99.88
  Z
  M 100.94 120.63
  C 106.89 118.61 114.04 116.23 116.91 110.25
  C 118.77 106.38 121.41 102.06 122.59 98.76
  C 127.78 84.17 119.98 70.40 113.63 57.83
  Q 113.26 57.10 111.72 56.80
  Q 98.84 54.29 90.22 53.41
  Q 90.06 53.39 84.31 52.52
  Q 76.70 51.37 70.84 55.55
  Q 64.39 60.14 60.87 67.37
  C 55.56 78.25 55.83 96.35 61.99 107.06
  C 69.74 120.53 86.60 125.49 100.94 120.63
  Z"
/>
<path fill="#ffab00" d="
  M 43.03 53.83
  L 37.03 65.31
  A 0.67 0.67 0.0 0 1 36.02 65.52
  Q 24.26 56.06 12.02 46.97
  Q 11.51 46.59 11.48 46.14
  A 0.88 0.88 0.0 0 1 12.50 45.22
  Q 27.63 47.73 42.32 52.14
  A 1.19 1.19 0.0 0 1 43.03 53.83
  Z"
/>
<path fill="#ffab00" d="
  M 142.66 71.32
  L 137.07 60.67
  A 0.85 0.84 67.5 0 1 137.56 59.47
  Q 150.66 55.38 164.23 52.36
  Q 165.17 52.15 165.73 52.41
  A 1.01 1.01 0.0 0 1 165.89 54.16
  Q 154.56 62.04 144.65 71.64
  A 1.26 1.26 0.0 0 1 142.66 71.32
  Z"
/>
<path fill="#fee247" d="
  M 100.94 120.63
  C 86.60 125.49 69.74 120.53 61.99 107.06
  C 55.83 96.35 55.56 78.25 60.87 67.37
  Q 64.39 60.14 70.84 55.55
  Q 76.70 51.37 84.31 52.52
  Q 90.06 53.39 90.22 53.41
  Q 98.84 54.29 111.72 56.80
  Q 113.26 57.10 113.63 57.83
  C 119.98 70.40 127.78 84.17 122.59 98.76
  C 121.41 102.06 118.77 106.38 116.91 110.25
  C 114.04 116.23 106.89 118.61 100.94 120.63
  Z"
/>
<path fill="#ffab00" d="
  M 33.34 86.17
  L 6.19 77.21
  A 1.15 1.14 53.0 0 1 6.50 74.98
  Q 20.40 74.47 34.05 71.89
  A 1.22 1.22 0.0 0 1 35.49 73.21
  L 34.28 85.56
  A 0.72 0.72 0.0 0 1 33.34 86.17
  Z"
/>
<path fill="#ffab00" d="
  M 172.97 83.00
  C 163.17 86.26 153.37 89.18 143.09 91.25
  A 0.77 0.77 0.0 0 1 142.17 90.52
  L 141.83 76.95
  Q 141.81 76.34 142.41 76.44
  Q 157.34 78.97 172.25 80.99
  Q 173.16 81.12 173.48 81.63
  A 0.94 0.93 -24.8 0 1 172.97 83.00
  Z"
/>
<path fill="#ffab00" d="
  M 3.54 104.41
  C 13.25 100.54 21.46 97.33 32.94 94.00
  Q 33.48 93.84 33.69 94.36
  Q 34.60 96.61 34.57 99.00
  Q 34.54 102.91 35.41 107.85
  A 0.76 0.76 0.0 0 1 34.58 108.74
  Q 20.00 107.13 5.00 106.35
  Q 3.66 106.27 3.19 105.32
  A 0.67 0.66 -24.2 0 1 3.54 104.41
  Z"
/>
<path fill="#ffab00" d="
  M 142.60 99.09
  L 168.53 109.76
  A 0.98 0.98 0.0 0 1 168.20 111.65
  L 140.29 112.88
  A 0.98 0.98 0.0 0 1 139.28 111.74
  L 141.26 99.83
  A 0.98 0.98 0.0 0 1 142.60 99.09
  Z"
/>
<path fill="#ffab00" d="
  M 42.63 126.21
  C 34.98 131.81 26.38 136.94 18.14 141.37
  A 1.05 1.05 0.0 0 1 16.82 139.79
  Q 25.52 128.79 32.34 116.54
  A 1.02 1.01 37.4 0 1 33.95 116.33
  L 42.71 125.27
  A 0.63 0.62 -40.4 0 1 42.63 126.21
  Z"
/>
<path fill="#ffab00" d="
  M 157.83 143.99
  Q 143.50 138.03 130.07 130.25
  A 1.15 1.14 35.7 0 1 129.78 128.51
  L 138.21 118.81
  A 0.70 0.69 45.5 0 1 139.27 118.83
  L 158.50 142.35
  Q 158.83 142.76 158.65 143.25
  L 158.49 143.70
  A 0.50 0.50 0.0 0 1 157.83 143.99
  Z"
/>
<path fill="#ffab00" d="
  M 173.13 132.18
  L 173.70 129.99
  Q 173.85 129.41 173.97 130.00
  Q 174.23 131.27 173.76 132.39
  A 0.33 0.33 0.0 0 1 173.13 132.18
  Z"
/>
<path fill="#ffab00" d="
  M 39.51 154.40
  Q 43.34 142.96 48.47 131.93
  Q 48.70 131.42 49.24 131.56
  Q 50.83 131.98 52.24 133.10
  Q 56.22 136.25 60.46 138.91
  A 0.94 0.94 0.0 0 1 60.61 140.38
  Q 49.78 150.54 39.43 161.42
  Q 38.93 161.94 38.52 162.02
  A 0.84 0.84 0.0 0 1 37.55 160.98
  Q 38.38 157.78 39.51 154.40
  Z"
/>
<path fill="#ffab00" d="
  M 123.68 135.36
  C 128.32 143.54 132.80 152.58 136.18 161.33
  A 0.77 0.76 -34.4 0 1 136.03 162.12
  Q 135.32 162.90 134.43 162.06
  Q 124.40 152.57 113.13 144.71
  A 1.20 1.19 43.1 0 1 113.06 142.79
  L 122.62 135.16
  A 0.71 0.71 0.0 0 1 123.68 135.36
  Z"
/>
<path fill="#ffab00" d="
  M 103.71 172.60
  Q 96.35 159.01 90.78 144.57
  A 1.27 1.26 -15.5 0 1 91.75 142.87
  L 104.43 140.65
  A 0.55 0.54 84.6 0 1 105.06 141.18
  L 105.20 172.22
  A 0.50 0.50 0.0 0 1 104.74 172.72
  L 104.05 172.78
  A 0.35 0.35 0.0 0 1 103.71 172.60
  Z"
/>
<path fill="#ffab00" d="
  M 76.52 171.19
  Q 76.30 172.36 75.50 172.87
  A 0.97 0.97 0.0 0 1 74.02 172.17
  Q 72.35 158.33 68.47 144.92
  A 1.11 1.10 -7.8 0 1 69.54 143.51
  L 81.23 143.57
  Q 82.87 143.58 82.54 145.19
  Q 79.88 158.27 76.76 169.96
  Q 76.73 170.05 76.52 171.19
  Z"
/>
</svg>
