<?xml version="1.0" encoding="UTF-8" standalone="no"?>
<!DOCTYPE svg PUBLIC "-//W3C//DTD SVG 1.1//EN" "http://www.w3.org/Graphics/SVG/1.1/DTD/svg11.dtd">
<svg xmlns="http://www.w3.org/2000/svg" version="1.1" viewBox="0.00 0.00 100.00 100.00">
<path stroke="#efb09f" stroke-width="2.00" fill="none" stroke-linecap="butt" vector-effect="non-scaling-stroke" d="
  M 77.36 59.69
  C 75.24 55.90 72.25 54.22 68.39 54.63
  C 68.03 54.67 67.86 54.51 67.89 54.15
  C 68.09 50.82 67.48 48.42 66.07 46.94
  C 63.98 44.75 61.46 43.98 58.53 44.62
  C 57.56 44.84 57.00 45.60 56.14 46.07
  C 55.80 46.26 55.61 46.16 55.56 45.77
  C 55.15 42.32 53.59 39.47 50.90 37.22"
/>
<path fill="#ec6e4c" d="
  M 77.36 59.69
  C 75.24 55.90 72.25 54.22 68.39 54.63
  C 68.03 54.67 67.86 54.51 67.89 54.15
  C 68.09 50.82 67.48 48.42 66.07 46.94
  C 63.98 44.75 61.46 43.98 58.53 44.62
  C 57.56 44.84 57.00 45.60 56.14 46.07
  C 55.80 46.26 55.61 46.16 55.56 45.77
  C 55.15 42.32 53.59 39.47 50.90 37.22
  C 60.03 23.15 81.12 28.43 82.93 45.05
  C 83.51 50.41 81.65 55.29 77.36 59.69
  Z"
/>
<path fill="#f2f2f1" d="
  M 50.90 37.22
  C 53.59 39.47 55.15 42.32 55.56 45.77
  C 55.61 46.16 55.80 46.26 56.14 46.07
  C 57.00 45.60 57.56 44.84 58.53 44.62
  C 61.46 43.98 63.98 44.75 66.07 46.94
  C 67.48 48.42 68.09 50.82 67.89 54.15
  C 67.86 54.51 68.03 54.67 68.39 54.63
  C 72.25 54.22 75.24 55.90 77.36 59.69
  C 79.23 65.41 76.21 71.85 69.75 71.87
  C 56.25 71.92 42.75 71.94 29.25 71.93
  C 14.55 71.92 14.18 49.60 30.47 49.47
  C 30.82 49.47 30.97 49.30 30.92 48.95
  C 29.12 37.33 41.47 30.75 50.90 37.22
  Z"
/>
</svg>
