<?xml version="1.0" encoding="UTF-8" standalone="no"?>
<!DOCTYPE svg PUBLIC "-//W3C//DTD SVG 1.1//EN" "http://www.w3.org/Graphics/SVG/1.1/DTD/svg11.dtd">
<svg xmlns="http://www.w3.org/2000/svg" version="1.1" viewBox="0.00 0.00 100.00 100.00">
<path stroke="#9d9d9e" stroke-width="2.00" fill="none" stroke-linecap="butt" vector-effect="non-scaling-stroke" d="
  M 77.32 59.71
  C 75.37 55.96 72.33 54.25 68.18 54.56
  C 67.83 54.59 67.68 54.42 67.73 54.07
  C 68.72 48.00 64.59 43.14 58.16 44.66
  C 57.81 44.74 57.52 44.91 57.29 45.18
  C 56.96 45.55 56.57 45.84 56.14 46.07
  C 55.80 46.25 55.61 46.15 55.57 45.77
  C 55.20 42.34 53.64 39.48 50.87 37.19"
/>
<path fill="#48484a" d="
  M 77.32 59.71
  C 75.37 55.96 72.33 54.25 68.18 54.56
  C 67.83 54.59 67.68 54.42 67.73 54.07
  C 68.72 48.00 64.59 43.14 58.16 44.66
  C 57.81 44.74 57.52 44.91 57.29 45.18
  C 56.96 45.55 56.57 45.84 56.14 46.07
  C 55.80 46.25 55.61 46.15 55.57 45.77
  C 55.20 42.34 53.64 39.48 50.87 37.19
  C 59.49 24.47 78.68 27.39 82.52 42.25
  C 84.24 48.89 82.51 54.71 77.32 59.71
  Z"
/>
<path fill="#f2f2f1" d="
  M 50.87 37.19
  C 53.64 39.48 55.20 42.34 55.57 45.77
  C 55.61 46.15 55.80 46.25 56.14 46.07
  C 56.57 45.84 56.96 45.55 57.29 45.18
  C 57.52 44.91 57.81 44.74 58.16 44.66
  C 64.59 43.14 68.72 48.00 67.73 54.07
  C 67.68 54.42 67.83 54.59 68.18 54.56
  C 72.33 54.25 75.37 55.96 77.32 59.71
  C 79.18 65.61 76.06 72.02 69.50 72.00
  C 56.41 71.97 43.33 71.95 30.25 71.92
  C 27.13 71.92 24.68 71.23 22.89 69.86
  C 13.37 62.57 18.98 49.56 30.47 49.47
  C 30.82 49.47 30.97 49.30 30.92 48.95
  C 29.13 37.35 41.47 30.75 50.87 37.19
  Z"
/>
</svg>
