<?xml version="1.0" encoding="UTF-8" standalone="no"?>
<!DOCTYPE svg PUBLIC "-//W3C//DTD SVG 1.1//EN" "http://www.w3.org/Graphics/SVG/1.1/DTD/svg11.dtd">
<svg xmlns="http://www.w3.org/2000/svg" version="1.1" viewBox="0.00 0.00 100.00 100.00">
<path fill="#f2f2f1" d="
  M 58.27 43.69
  C 64.27 39.34 71.65 44.22 69.92 51.50
  C 69.85 51.81 69.97 51.94 70.28 51.90
  C 79.46 50.76 83.69 62.76 76.38 67.48
  C 74.91 68.43 72.47 68.90 69.08 68.89
  C 56.26 68.87 43.44 68.87 30.62 68.88
  C 29.11 68.89 27.47 68.20 25.69 66.82
  C 16.56 59.73 21.90 46.86 32.97 46.86
  C 33.29 46.86 33.44 46.70 33.42 46.38
  C 32.01 28.88 56.95 27.45 57.80 43.47
  C 57.82 43.83 57.98 43.90 58.27 43.69
  Z"
/>
</svg>
