<?xml version="1.0" encoding="UTF-8" standalone="no"?>
<!DOCTYPE svg PUBLIC "-//W3C//DTD SVG 1.1//EN" "http://www.w3.org/Graphics/SVG/1.1/DTD/svg11.dtd">
<svg xmlns="http://www.w3.org/2000/svg" version="1.1" viewBox="0.00 0.00 100.00 100.00">
<path stroke="#9d9d9e" stroke-width="2.00" fill="none" stroke-linecap="butt" vector-effect="non-scaling-stroke" d="
  M 74.67 59.94
  C 72.79 56.44 69.82 54.70 65.76 54.71
  C 65.41 54.71 65.27 54.54 65.32 54.20
  C 66.36 47.73 61.52 44.00 55.26 45.53
  C 54.94 45.61 54.65 45.75 54.38 45.95
  L 53.56 46.57
  C 53.19 46.84 52.99 46.75 52.96 46.29
  C 52.63 41.83 50.34 38.54 46.09 36.43"
/>
<path fill="#48484a" d="
  M 74.67 59.94
  C 72.79 56.44 69.82 54.70 65.76 54.71
  C 65.41 54.71 65.27 54.54 65.32 54.20
  C 66.36 47.73 61.52 44.00 55.26 45.53
  C 54.94 45.61 54.65 45.75 54.38 45.95
  L 53.56 46.57
  C 53.19 46.84 52.99 46.75 52.96 46.29
  C 52.63 41.83 50.34 38.54 46.09 36.43
  C 49.96 25.55 64.09 27.25 66.42 38.30
  C 66.51 38.68 66.72 38.77 67.05 38.57
  C 72.17 35.40 77.65 39.37 76.55 45.23
  C 76.49 45.58 76.63 45.74 76.98 45.72
  C 88.70 45.25 87.22 62.92 74.67 59.94
  Z"
/>
<path fill="#f2f2f1" d="
  M 46.09 36.43
  C 50.34 38.54 52.63 41.83 52.96 46.29
  C 52.99 46.75 53.19 46.84 53.56 46.57
  L 54.38 45.95
  C 54.65 45.75 54.94 45.61 55.26 45.53
  C 61.52 44.00 66.36 47.73 65.32 54.20
  C 65.27 54.54 65.41 54.71 65.76 54.71
  C 69.82 54.70 72.79 56.44 74.67 59.94
  C 76.03 64.79 74.89 68.36 71.25 70.65
  C 69.96 71.47 68.20 71.88 65.98 71.88
  C 52.73 71.89 39.48 71.88 26.25 71.86
  C 24.54 71.86 22.96 71.39 21.51 70.45
  C 11.70 64.03 16.49 49.02 28.05 49.99
  C 28.42 50.02 28.59 49.84 28.56 49.47
  C 27.62 39.51 36.80 32.16 46.09 36.43
  Z"
/>
</svg>
