<?xml version="1.0" encoding="UTF-8" standalone="no"?>
<!DOCTYPE svg PUBLIC "-//W3C//DTD SVG 1.1//EN" "http://www.w3.org/Graphics/SVG/1.1/DTD/svg11.dtd">
<svg xmlns="http://www.w3.org/2000/svg" version="1.1" viewBox="0.00 0.00 100.00 100.00">
<g stroke-width="2.00" fill="none" stroke-linecap="butt">
<path stroke="#363638" vector-effect="non-scaling-stroke" d="
  M 70.77 50.16
  C 68.96 47.78 68.21 45.72 64.77 44.75
  C 63.36 44.35 62.71 43.57 62.84 42.42
  C 62.88 42.07 62.83 41.73 62.69 41.40
  C 61.50 38.69 59.46 37.05 56.57 36.48
  C 55.38 36.25 54.59 36.78 53.41 36.97
  C 53.10 37.02 52.79 36.85 52.67 36.56
  C 51.56 33.91 49.72 31.68 47.14 29.88"
/>
<path stroke="#8b8b8c" vector-effect="non-scaling-stroke" d="
  M 46.74 31.09
  C 49.69 32.82 51.40 35.31 51.87 38.57
  C 51.92 38.92 52.10 39.01 52.41 38.86
  L 54.46 37.85
  C 54.77 37.70 55.09 37.65 55.42 37.68
  C 60.09 38.19 62.16 40.78 61.61 45.45
  C 61.58 45.75 61.71 45.88 62.01 45.85
  C 65.34 45.51 67.75 46.92 69.22 50.08"
/>
<path stroke="#8b8b8c" vector-effect="non-scaling-stroke" d="
  M 39.58 59.74
  C 39.81 58.97 39.78 58.34 39.48 57.83
  C 38.89 56.84 37.39 57.05 37.10 58.17
  C 36.91 58.90 36.56 59.44 36.05 59.77"
/>
</g>
<path fill="#48484a" d="
  M 70.77 50.16
  C 68.96 47.78 68.21 45.72 64.77 44.75
  C 63.36 44.35 62.71 43.57 62.84 42.42
  C 62.88 42.07 62.83 41.73 62.69 41.40
  C 61.50 38.69 59.46 37.05 56.57 36.48
  C 55.38 36.25 54.59 36.78 53.41 36.97
  C 53.10 37.02 52.79 36.85 52.67 36.56
  C 51.56 33.91 49.72 31.68 47.14 29.88
  C 51.05 22.29 61.30 24.00 62.90 32.34
  C 62.96 32.67 63.14 32.77 63.45 32.62
  C 67.24 30.83 69.88 31.92 71.39 35.89
  C 71.50 36.17 71.51 36.48 71.41 36.76
  L 71.09 37.75
  C 70.96 38.14 71.10 38.34 71.51 38.37
  C 80.96 38.93 79.64 50.79 70.77 50.16
  Z"
/>
<path fill="#f2f2f1" d="
  M 46.74 31.09
  C 49.69 32.82 51.40 35.31 51.87 38.57
  C 51.92 38.92 52.10 39.01 52.41 38.86
  L 54.46 37.85
  C 54.77 37.70 55.09 37.65 55.42 37.68
  C 60.09 38.19 62.16 40.78 61.61 45.45
  C 61.58 45.75 61.71 45.88 62.01 45.85
  C 65.34 45.51 67.75 46.92 69.22 50.08
  C 70.09 53.89 69.27 56.63 66.74 58.31
  C 65.31 59.26 62.89 59.73 59.47 59.74
  C 52.87 59.75 46.24 59.75 39.58 59.74
  C 39.81 58.97 39.78 58.34 39.48 57.83
  C 38.89 56.84 37.39 57.05 37.10 58.17
  C 36.91 58.90 36.56 59.44 36.05 59.77
  C 30.93 59.65 26.56 60.28 23.45 55.26
  C 19.50 48.86 24.77 41.89 31.67 41.68
  C 31.99 41.67 32.15 41.51 32.14 41.19
  C 32.05 34.88 34.92 31.18 40.75 30.07
  C 42.85 29.68 44.75 30.45 46.74 31.09
  Z"
/>
<path fill="#232326" d="
  M 47.14 29.88
  C 49.72 31.68 51.56 33.91 52.67 36.56
  C 52.79 36.85 53.10 37.02 53.41 36.97
  C 54.59 36.78 55.38 36.25 56.57 36.48
  C 59.46 37.05 61.50 38.69 62.69 41.40
  C 62.83 41.73 62.88 42.07 62.84 42.42
  C 62.71 43.57 63.36 44.35 64.77 44.75
  C 68.21 45.72 68.96 47.78 70.77 50.16
  L 69.22 50.08
  C 67.75 46.92 65.34 45.51 62.01 45.85
  C 61.71 45.88 61.58 45.75 61.61 45.45
  C 62.16 40.78 60.09 38.19 55.42 37.68
  C 55.09 37.65 54.77 37.70 54.46 37.85
  L 52.41 38.86
  C 52.10 39.01 51.92 38.92 51.87 38.57
  C 51.40 35.31 49.69 32.82 46.74 31.09
  L 47.14 29.88
  Z"
/>
<path fill="#232326" d="
  M 39.58 59.74
  C 39.30 60.45 38.93 60.99 38.46 61.37
  C 38.18 61.60 37.88 61.63 37.55 61.47
  C 36.92 61.17 36.42 60.60 36.05 59.77
  C 36.56 59.44 36.91 58.90 37.10 58.17
  C 37.39 57.05 38.89 56.84 39.48 57.83
  C 39.78 58.34 39.81 58.97 39.58 59.74
  Z"
/>
<ellipse fill="#48484a" cx="0.00" cy="0.00" transform="translate(52.84,63.67) rotate(110.7)" rx="1.96" ry="1.59"/>
<rect fill="#48484a" x="-1.51" y="-2.77" transform="translate(43.59,66.25) rotate(23.8)" width="3.02" height="5.54" rx="0.99"/>
<rect fill="#48484a" x="-1.51" y="-2.80" transform="translate(35.07,67.36) rotate(22.5)" width="3.02" height="5.60" rx="0.97"/>
<rect fill="#48484a" x="-1.55" y="-2.45" transform="translate(49.50,72.59) rotate(21.5)" width="3.10" height="4.90" rx="1.13"/>
<ellipse fill="#48484a" cx="0.00" cy="0.00" transform="translate(41.29,72.44) rotate(110.2)" rx="1.79" ry="1.57"/>
</svg>
