<?xml version="1.0" encoding="UTF-8" standalone="no"?>
<!DOCTYPE svg PUBLIC "-//W3C//DTD SVG 1.1//EN" "http://www.w3.org/Graphics/SVG/1.1/DTD/svg11.dtd">
<svg xmlns="http://www.w3.org/2000/svg" version="1.1" viewBox="0.00 0.00 100.00 100.00">
<path fill="#f2f2f1" d="
  M 71.02 37.78
  A 0.56 0.56 0.0 0 0 71.56 38.61
  C 80.47 37.86 80.03 51.78 69.79 49.95
  Q 69.19 49.84 69.31 50.44
  Q 70.38 55.85 66.72 58.34
  Q 64.65 59.75 59.99 59.74
  Q 49.97 59.74 39.96 59.74
  Q 39.41 59.74 39.15 60.24
  L 38.78 60.98
  Q 38.52 61.49 37.95 61.43
  Q 36.83 61.30 36.44 60.21
  Q 36.27 59.76 35.80 59.75
  C 30.91 59.68 26.86 60.36 23.63 55.41
  C 19.52 49.09 24.43 41.89 31.66 41.78
  Q 32.16 41.77 32.15 41.28
  Q 31.96 31.74 40.75 30.08
  C 42.76 29.69 44.34 30.32 46.25 31.00
  Q 46.76 31.18 46.98 30.68
  C 50.59 22.50 61.70 23.64 62.74 32.53
  Q 62.80 33.05 63.28 32.85
  L 65.62 31.86
  A 0.84 0.77 -53.5 0 1 65.99 31.79
  C 68.45 31.85 72.74 34.63 71.02 37.78
  Z"
/>
<ellipse fill="#f2f2f1" cx="0.00" cy="0.00" transform="translate(52.84,63.69) rotate(113.0)" rx="1.88" ry="1.49"/>
<rect fill="#f2f2f1" x="-1.43" y="-2.71" transform="translate(43.60,66.24) rotate(24.6)" width="2.86" height="5.42" rx="0.92"/>
<rect fill="#f2f2f1" x="-1.42" y="-2.75" transform="translate(35.09,67.35) rotate(22.0)" width="2.84" height="5.50" rx="0.98"/>
<rect fill="#f2f2f1" x="-1.46" y="-2.38" transform="translate(49.50,72.59) rotate(20.9)" width="2.92" height="4.76" rx="1.11"/>
<path fill="#f2f2f1" d="
  M 42.86 71.73
  A 0.54 0.54 0.0 0 1 43.00 72.48
  L 42.54 73.15
  A 1.79 1.24 -55.8 0 1 40.51 73.93
  L 40.18 73.71
  A 1.79 1.24 -55.8 0 1 40.16 71.53
  L 40.62 70.86
  A 0.54 0.54 0.0 0 1 41.37 70.72
  L 42.86 71.73
  Z"
/>
</svg>
