<?xml version="1.0" encoding="UTF-8" standalone="no"?>
<!DOCTYPE svg PUBLIC "-//W3C//DTD SVG 1.1//EN" "http://www.w3.org/Graphics/SVG/1.1/DTD/svg11.dtd">
<svg xmlns="http://www.w3.org/2000/svg" version="1.1" viewBox="0.00 0.00 100.00 100.00">
<g stroke-width="2.00" fill="none" stroke-linecap="butt">
<path stroke="#efb09f" vector-effect="non-scaling-stroke" d="
  M 71.45 49.47
  C 69.76 46.48 67.38 45.16 64.29 45.53
  C 63.88 45.58 63.69 45.39 63.72 44.98
  C 63.75 44.59 63.88 44.21 64.10 43.85
  C 64.27 43.58 64.29 43.31 64.18 43.02
  C 63.80 42.04 63.65 40.88 63.02 40.08
  C 60.66 37.10 57.77 36.62 54.34 38.65
  C 54.06 38.81 53.91 38.73 53.90 38.41
  C 53.82 35.66 52.63 33.40 50.32 31.62"
/>
<path stroke="#9e9d9e" vector-effect="non-scaling-stroke" d="
  M 41.63 59.43
  C 42.09 57.60 41.46 56.92 39.74 57.39
  C 39.40 57.48 39.13 57.73 38.99 58.06
  C 38.74 58.65 38.44 59.13 38.07 59.50"
/>
</g>
<path fill="#ec6e4c" d="
  M 71.45 49.47
  C 69.76 46.48 67.38 45.16 64.29 45.53
  C 63.88 45.58 63.69 45.39 63.72 44.98
  C 63.75 44.59 63.88 44.21 64.10 43.85
  C 64.27 43.58 64.29 43.31 64.18 43.02
  C 63.80 42.04 63.65 40.88 63.02 40.08
  C 60.66 37.10 57.77 36.62 54.34 38.65
  C 54.06 38.81 53.91 38.73 53.90 38.41
  C 53.82 35.66 52.63 33.40 50.32 31.62
  C 56.68 22.47 69.37 23.08 74.56 33.00
  C 77.38 38.39 76.01 45.40 71.45 49.47
  Z"
/>
<path fill="#f2f2f2" d="
  M 50.32 31.62
  C 52.63 33.40 53.82 35.66 53.90 38.41
  C 53.91 38.73 54.06 38.81 54.34 38.65
  C 57.77 36.62 60.66 37.10 63.02 40.08
  C 63.65 40.88 63.80 42.04 64.18 43.02
  C 64.29 43.31 64.27 43.58 64.10 43.85
  C 63.88 44.21 63.75 44.59 63.72 44.98
  C 63.69 45.39 63.88 45.58 64.29 45.53
  C 67.38 45.16 69.76 46.48 71.45 49.47
  C 72.53 53.86 71.58 56.82 68.59 58.36
  C 67.19 59.08 64.57 59.43 60.74 59.42
  C 54.41 59.40 48.04 59.40 41.63 59.43
  C 42.09 57.60 41.46 56.92 39.74 57.39
  C 39.40 57.48 39.13 57.73 38.99 58.06
  C 38.74 58.65 38.44 59.13 38.07 59.50
  C 35.85 59.31 33.27 59.69 31.34 59.20
  C 20.38 56.43 22.52 41.62 33.85 41.39
  C 34.19 41.38 34.34 41.21 34.29 40.88
  C 33.03 31.87 43.01 26.33 50.32 31.62
  Z"
/>
<path fill="#49484a" d="
  M 41.63 59.43
  C 41.41 60.09 41.11 60.59 40.72 60.92
  C 40.26 61.32 39.77 61.36 39.24 61.03
  C 38.75 60.72 38.36 60.21 38.07 59.50
  C 38.44 59.13 38.74 58.65 38.99 58.06
  C 39.13 57.73 39.40 57.48 39.74 57.39
  C 41.46 56.92 42.09 57.60 41.63 59.43
  Z"
/>
<ellipse fill="#49484a" cx="0.00" cy="0.00" transform="translate(55.01,63.54) rotate(112.3)" rx="1.93" ry="1.57"/>
<rect fill="#49484a" x="-1.49" y="-2.74" transform="translate(45.66,66.13) rotate(20.9)" width="2.98" height="5.48" rx="0.97"/>
<rect fill="#49484a" x="-1.49" y="-2.77" transform="translate(37.09,67.28) rotate(22.7)" width="2.98" height="5.54" rx="1.00"/>
<rect fill="#49484a" x="-1.46" y="-2.47" transform="translate(51.65,72.51) rotate(24.3)" width="2.92" height="4.94" rx="0.90"/>
<ellipse fill="#49484a" cx="0.00" cy="0.00" transform="translate(43.30,72.39) rotate(117.2)" rx="1.73" ry="1.55"/>
</svg>
