<?xml version="1.0" encoding="UTF-8" standalone="no"?>
<!DOCTYPE svg PUBLIC "-//W3C//DTD SVG 1.1//EN" "http://www.w3.org/Graphics/SVG/1.1/DTD/svg11.dtd">
<svg xmlns="http://www.w3.org/2000/svg" version="1.1" viewBox="0.00 0.00 100.00 100.00">
<g stroke-width="2.00" fill="none" stroke-linecap="butt">
<path stroke="#9e9d9e" vector-effect="non-scaling-stroke" d="
  M 71.47 49.64
  C 69.64 46.45 67.08 45.15 63.79 45.76
  C 63.60 45.80 63.44 45.61 63.50 45.42
  C 65.31 40.35 60.36 35.72 55.33 38.46
  C 54.98 38.65 54.62 38.75 54.25 38.78
  C 53.99 38.79 53.85 38.67 53.84 38.41
  C 53.66 35.65 52.46 33.38 50.25 31.61"
/>
<path stroke="#9e9d9e" vector-effect="non-scaling-stroke" d="
  M 41.63 59.43
  C 41.84 58.62 41.82 58.02 41.57 57.63
  C 40.98 56.68 39.56 56.79 39.12 57.82
  C 38.83 58.48 38.49 59.04 38.08 59.50"
/>
</g>
<path fill="#49484a" d="
  M 71.47 49.64
  C 69.64 46.45 67.08 45.15 63.79 45.76
  C 63.60 45.80 63.44 45.61 63.50 45.42
  C 65.31 40.35 60.36 35.72 55.33 38.46
  C 54.98 38.65 54.62 38.75 54.25 38.78
  C 53.99 38.79 53.85 38.67 53.84 38.41
  C 53.66 35.65 52.46 33.38 50.25 31.61
  C 55.10 24.50 65.02 22.73 71.35 28.60
  C 77.61 34.41 77.56 43.43 71.47 49.64
  Z"
/>
<path fill="#f2f2f2" d="
  M 50.25 31.61
  C 52.46 33.38 53.66 35.65 53.84 38.41
  C 53.85 38.67 53.99 38.79 54.25 38.78
  C 54.62 38.75 54.98 38.65 55.33 38.46
  C 60.36 35.72 65.31 40.35 63.50 45.42
  C 63.44 45.61 63.60 45.80 63.79 45.76
  C 67.08 45.15 69.64 46.45 71.47 49.64
  C 72.50 53.85 71.58 56.74 68.72 58.29
  C 67.32 59.05 64.77 59.43 61.08 59.42
  C 54.64 59.41 48.16 59.41 41.63 59.43
  C 41.84 58.62 41.82 58.02 41.57 57.63
  C 40.98 56.68 39.56 56.79 39.12 57.82
  C 38.83 58.48 38.49 59.04 38.08 59.50
  C 35.85 59.30 33.27 59.69 31.34 59.20
  C 20.37 56.42 22.53 41.60 33.88 41.39
  C 34.23 41.38 34.38 41.21 34.33 40.87
  C 33.15 31.66 42.69 26.60 50.25 31.61
  Z"
/>
<path fill="#49484a" d="
  M 41.63 59.43
  C 41.41 60.09 41.11 60.59 40.72 60.92
  C 40.26 61.32 39.77 61.36 39.24 61.03
  C 38.75 60.72 38.36 60.21 38.08 59.50
  C 38.49 59.04 38.83 58.48 39.12 57.82
  C 39.56 56.79 40.98 56.68 41.57 57.63
  C 41.82 58.02 41.84 58.62 41.63 59.43
  Z"
/>
<ellipse fill="#49484a" cx="0.00" cy="0.00" transform="translate(55.01,63.54) rotate(112.3)" rx="1.93" ry="1.57"/>
<rect fill="#49484a" x="-1.50" y="-2.74" transform="translate(45.66,66.13) rotate(21.1)" width="3.00" height="5.48" rx="0.98"/>
<rect fill="#49484a" x="-1.49" y="-2.77" transform="translate(37.09,67.28) rotate(22.7)" width="2.98" height="5.54" rx="1.00"/>
<rect fill="#49484a" x="-1.46" y="-2.47" transform="translate(51.65,72.51) rotate(24.2)" width="2.92" height="4.94" rx="0.90"/>
<ellipse fill="#49484a" cx="0.00" cy="0.00" transform="translate(43.30,72.39) rotate(117.2)" rx="1.73" ry="1.55"/>
</svg>
