<?xml version="1.0" encoding="UTF-8" standalone="no"?>
<!DOCTYPE svg PUBLIC "-//W3C//DTD SVG 1.1//EN" "http://www.w3.org/Graphics/SVG/1.1/DTD/svg11.dtd">
<svg xmlns="http://www.w3.org/2000/svg" version="1.1" viewBox="0.00 0.00 100.00 100.00">
<g stroke-width="2.00" fill="none" stroke-linecap="butt">
<path stroke="#9d9d9e" vector-effect="non-scaling-stroke" d="
  M 72.65 52.66
  C 70.84 48.95 67.96 47.25 64.01 47.56
  C 63.64 47.59 63.49 47.42 63.58 47.06
  C 64.94 41.45 60.25 37.21 54.73 38.51
  C 54.40 38.58 54.12 38.73 53.88 38.96
  C 53.59 39.24 53.25 39.45 52.88 39.58
  C 52.48 39.72 52.25 39.58 52.18 39.16
  C 51.57 35.29 49.49 32.31 45.92 30.22"
/>
<path stroke="#efaf9d" vector-effect="non-scaling-stroke" d="
  M 43.34 63.93
  L 43.74 63.30
  C 44.41 62.24 44.12 61.77 42.87 61.88
  L 40.53 62.09
  C 40.08 62.13 39.78 61.64 40.03 61.26
  L 43.92 55.23
  C 44.23 54.76 44.10 54.52 43.53 54.51
  L 38.27 54.46
  C 37.67 54.45 37.23 54.72 36.96 55.26
  L 32.54 63.95"
/>
</g>
<path fill="#48484a" d="
  M 72.65 52.66
  C 70.84 48.95 67.96 47.25 64.01 47.56
  C 63.64 47.59 63.49 47.42 63.58 47.06
  C 64.94 41.45 60.25 37.21 54.73 38.51
  C 54.40 38.58 54.12 38.73 53.88 38.96
  C 53.59 39.24 53.25 39.45 52.88 39.58
  C 52.48 39.72 52.25 39.58 52.18 39.16
  C 51.57 35.29 49.49 32.31 45.92 30.22
  C 48.73 24.33 52.73 22.12 57.92 23.59
  C 62.03 24.75 64.86 27.63 65.13 31.96
  C 65.15 32.29 65.52 32.46 65.78 32.26
  C 70.24 28.84 76.22 32.99 75.05 38.31
  C 74.97 38.66 75.11 38.84 75.48 38.83
  C 81.64 38.69 85.04 44.70 81.52 49.82
  C 78.97 53.53 76.16 52.28 72.65 52.66
  Z"
/>
<path fill="#f2f2f1" d="
  M 45.92 30.22
  C 49.49 32.31 51.57 35.29 52.18 39.16
  C 52.25 39.58 52.48 39.72 52.88 39.58
  C 53.25 39.45 53.59 39.24 53.88 38.96
  C 54.12 38.73 54.40 38.58 54.73 38.51
  C 60.25 37.21 64.94 41.45 63.58 47.06
  C 63.49 47.42 63.64 47.59 64.01 47.56
  C 67.96 47.25 70.84 48.95 72.65 52.66
  C 73.72 57.16 72.76 60.38 69.76 62.32
  C 68.15 63.36 65.46 63.91 61.68 63.96
  C 55.66 64.04 49.55 64.03 43.34 63.93
  L 43.74 63.30
  C 44.41 62.24 44.12 61.77 42.87 61.88
  L 40.53 62.09
  C 40.08 62.13 39.78 61.64 40.03 61.26
  L 43.92 55.23
  C 44.23 54.76 44.10 54.52 43.53 54.51
  L 38.27 54.46
  C 37.67 54.45 37.23 54.72 36.96 55.26
  L 32.54 63.95
  C 26.10 64.12 19.70 63.64 17.70 56.50
  C 15.58 48.98 20.91 42.85 28.71 43.01
  C 29.05 43.02 29.19 42.85 29.13 42.52
  C 27.43 32.67 37.06 26.48 45.92 30.22
  Z"
/>
<path fill="#ec6c49" d="
  M 43.34 63.93
  C 41.11 66.46 37.50 70.73 32.51 76.73
  C 32.34 76.94 32.14 77.02 31.91 76.97
  C 31.56 76.90 31.45 76.69 31.60 76.36
  L 35.76 66.97
  C 35.86 66.76 35.70 66.51 35.47 66.51
  L 32.19 66.49
  C 31.78 66.49 31.64 66.30 31.79 65.91
  L 32.54 63.95
  L 36.96 55.26
  C 37.23 54.72 37.67 54.45 38.27 54.46
  L 43.53 54.51
  C 44.10 54.52 44.23 54.76 43.92 55.23
  L 40.03 61.26
  C 39.78 61.64 40.08 62.13 40.53 62.09
  L 42.87 61.88
  C 44.12 61.77 44.41 62.24 43.74 63.30
  L 43.34 63.93
  Z"
/>
</svg>
