<?xml version="1.0" encoding="UTF-8" standalone="no"?>
<!DOCTYPE svg PUBLIC "-//W3C//DTD SVG 1.1//EN" "http://www.w3.org/Graphics/SVG/1.1/DTD/svg11.dtd">
<svg xmlns="http://www.w3.org/2000/svg" version="1.1" viewBox="0.00 0.00 100.00 100.00">
<path fill="#48484a" d="
  M 61.96 59.77
  L 62.96 63.93
  C 63.14 64.66 62.64 65.38 61.89 65.48
  L 61.43 65.54
  C 60.37 65.67 59.71 65.22 59.46 64.18
  C 58.57 60.58 57.95 56.70 55.76 55.71
  C 53.68 54.77 51.65 56.42 51.78 58.61
  C 51.92 60.88 56.03 64.13 57.59 65.80
  C 58.09 66.33 58.10 67.16 57.61 67.71
  L 57.21 68.17
  C 56.66 68.78 55.71 68.81 55.13 68.23
  L 52.25 65.34
  C 52.00 65.10 51.60 65.33 51.68 65.67
  C 52.07 67.22 52.04 68.74 51.61 70.24
  C 51.52 70.55 51.28 70.79 50.98 70.88
  C 47.33 72.04 48.41 67.29 48.43 65.56
  C 48.43 65.26 48.06 65.11 47.86 65.33
  L 45.17 68.13
  C 44.67 68.66 43.84 68.71 43.27 68.26
  L 42.95 68.02
  C 42.17 67.40 42.09 66.24 42.79 65.53
  C 44.39 63.90 48.17 60.99 48.44 58.72
  C 48.90 54.81 43.51 54.34 42.50 57.99
  C 41.90 60.15 41.25 62.34 40.56 64.57
  C 40.23 65.62 39.56 65.95 38.53 65.54
  L 38.22 65.42
  C 37.63 65.19 37.26 64.61 37.31 63.97
  C 37.42 62.60 37.75 61.29 38.32 60.05
  C 38.69 59.25 38.50 59.08 37.75 59.55
  L 34.43 61.61
  C 33.70 62.06 33.07 61.94 32.56 61.25
  L 32.20 60.76
  C 31.64 60.00 31.88 58.93 32.71 58.48
  L 35.16 57.14
  C 36.99 56.14 36.84 55.74 34.71 55.93
  C 34.22 55.98 33.32 55.65 32.03 54.96
  C 31.30 54.57 31.03 53.94 31.22 53.09
  C 31.44 52.10 32.44 51.50 33.42 51.77
  L 40.39 53.66
  C 40.74 53.75 41.07 53.72 41.39 53.55
  L 43.24 52.55
  C 43.59 52.36 43.80 52.07 43.87 51.68
  C 44.18 50.03 43.74 48.84 42.54 48.13
  C 40.45 46.90 35.80 48.72 33.59 49.48
  C 32.45 49.88 31.68 49.51 31.27 48.37
  L 31.17 48.07
  C 30.93 47.38 31.24 46.63 31.90 46.32
  C 33.11 45.75 34.41 45.40 35.78 45.29
  C 36.17 45.26 36.28 44.73 35.94 44.54
  L 32.63 42.67
  C 31.85 42.23 31.66 41.61 32.07 40.80
  L 32.32 40.31
  C 32.84 39.30 33.58 39.09 34.55 39.68
  L 37.95 41.77
  C 38.25 41.95 38.36 41.87 38.27 41.53
  L 37.27 37.45
  C 37.11 36.80 37.46 36.14 38.08 35.89
  L 38.45 35.74
  C 39.34 35.39 40.34 35.87 40.61 36.78
  L 42.55 43.27
  C 42.94 44.57 44.13 45.48 45.49 45.50
  C 47.66 45.55 48.65 44.59 48.46 42.63
  C 48.22 40.21 44.41 37.34 42.76 35.61
  C 42.09 34.91 42.14 33.78 42.87 33.14
  L 43.10 32.94
  C 43.70 32.41 44.61 32.45 45.16 33.03
  L 47.52 35.50
  C 48.30 36.31 48.60 36.16 48.42 35.05
  C 48.19 33.61 47.79 29.59 50.56 29.99
  C 50.95 30.05 51.23 30.26 51.39 30.62
  C 52.10 32.19 52.18 33.83 51.64 35.55
  C 51.54 35.88 51.94 36.12 52.19 35.88
  L 54.87 33.26
  C 55.56 32.58 56.67 32.58 57.37 33.25
  L 57.62 33.49
  C 58.18 34.03 58.18 34.93 57.63 35.48
  L 52.74 40.34
  C 51.64 41.43 51.50 43.15 52.40 44.41
  C 53.51 45.96 54.75 46.28 56.10 45.38
  C 58.10 44.04 58.96 39.16 59.47 36.93
  C 59.68 36.00 60.61 35.42 61.53 35.66
  L 61.92 35.76
  C 62.65 35.95 63.10 36.69 62.92 37.43
  L 61.97 41.31
  C 61.86 41.75 62.01 41.85 62.40 41.62
  L 65.61 39.73
  C 66.44 39.24 67.17 39.37 67.79 40.11
  L 68.03 40.39
  C 68.49 40.94 68.44 41.74 67.93 42.23
  C 67.11 43.01 66.19 43.60 65.18 44.01
  C 63.87 44.54 63.89 44.98 65.26 45.34
  L 67.74 46.00
  C 68.74 46.27 69.28 47.36 68.88 48.32
  L 68.68 48.78
  C 68.40 49.46 67.63 49.81 66.93 49.58
  C 64.62 48.81 60.18 47.04 57.89 47.97
  C 56.25 48.63 55.83 49.88 56.62 51.71
  C 57.24 53.14 58.81 53.90 60.32 53.50
  L 67.03 51.71
  C 67.59 51.56 68.19 51.78 68.51 52.26
  C 70.13 54.63 66.70 56.03 65.21 55.89
  C 63.50 55.74 63.36 56.08 64.79 56.92
  L 67.61 58.59
  C 68.70 59.23 68.81 60.01 67.94 60.93
  L 67.73 61.15
  C 67.08 61.83 66.36 61.93 65.57 61.45
  L 62.32 59.51
  C 61.99 59.31 61.87 59.40 61.96 59.77
  Z
  M 50.0191 53.4882
  C 51.54 53.54 52.82 52.29 52.8783 50.6963
  C 52.93 49.10 51.74 47.76 50.2209 47.7118
  C 48.70 47.66 47.42 48.91 47.3617 50.5037
  C 47.31 52.10 48.50 53.44 50.0191 53.4882
  Z"
/>
</svg>
