<svg xmlns="http://www.w3.org/2000/svg" xmlns:xlink="http://www.w3.org/1999/xlink" width="1080" zoomAndPan="magnify" viewBox="0 0 810 809.999993" height="1080" preserveAspectRatio="xMidYMid meet" version="1.0"><path fill="#231f20" d="M 361.308594 809.792969 L 360.394531 807.222656 C 384.425781 798.753906 449.6875 765.015625 434.886719 722.566406 C 429.023438 705.769531 414.902344 699.894531 399.9375 693.65625 C 388.921875 689.066406 377.53125 684.3125 369.578125 674.859375 C 363.550781 667.6875 360.980469 660.175781 361.984375 652.5625 C 364.425781 633.988281 387.238281 617.984375 405.589844 605.148438 C 413.652344 599.492188 420.625 594.597656 424.65625 590.40625 C 438.273438 576.257812 441.300781 556.597656 432.597656 539.125 C 423.660156 521.171875 405.125 511.078125 385.441406 513.472656 L 385.125 510.75 C 405.988281 508.238281 425.589844 518.902344 435.050781 537.898438 C 444.28125 556.449219 441.054688 577.277344 426.628906 592.308594 C 422.398438 596.714844 415.34375 601.664062 407.167969 607.378906 C 389.261719 619.902344 366.972656 635.519531 364.683594 652.921875 C 363.796875 659.851562 366.0625 666.449219 371.679688 673.109375 C 379.191406 682.042969 390.265625 686.660156 400.964844 691.132812 C 415.847656 697.3125 431.21875 703.714844 437.457031 721.65625 C 452.992188 766.207031 386 801.101562 361.308594 809.792969 " fill-opacity="1" fill-rule="nonzero"/><path fill="#ffc9e8" d="M 413.183594 4.859375 C 301.882812 0.347656 207.980469 86.917969 203.457031 198.230469 C 199.066406 306.433594 277.167969 486.3125 383.746094 500.449219 L 367.488281 536.789062 L 418.847656 535.550781 L 400.917969 501.265625 C 508.921875 497.292969 602.128906 323.265625 606.53125 214.570312 C 611.054688 103.261719 524.507812 9.390625 413.183594 4.859375 " fill-opacity="1" fill-rule="nonzero"/><path fill="#ffffff" d="M 239.660156 262.359375 C 235.40625 262.359375 231.65625 259.289062 230.921875 254.953125 C 227.765625 236.207031 226.480469 218.730469 227.125 203.042969 C 228.980469 156.902344 248.710938 114.242188 282.667969 82.921875 C 287.304688 78.648438 292.1875 74.617188 297.152344 70.9375 C 301.089844 68.019531 306.652344 68.847656 309.558594 72.785156 C 312.46875 76.722656 311.636719 82.28125 307.714844 85.179688 C 303.238281 88.496094 298.859375 92.128906 294.675781 95.972656 C 264.210938 124.054688 246.503906 162.332031 244.820312 203.753906 C 244.238281 218.214844 245.441406 234.464844 248.417969 252.035156 C 249.226562 256.835938 245.976562 261.402344 241.152344 262.242188 C 240.640625 262.300781 240.136719 262.359375 239.660156 262.359375 " fill-opacity="1" fill-rule="nonzero"/><path fill="#ffffff" d="M 281.757812 382.421875 C 278.628906 382.421875 275.601562 380.773438 273.988281 377.816406 C 261.398438 354.886719 250.476562 328.941406 242.425781 302.824219 C 240.976562 298.140625 243.605469 293.1875 248.277344 291.738281 C 252.953125 290.289062 257.90625 292.90625 259.363281 297.613281 C 267.074219 322.601562 277.492188 347.375 289.527344 369.300781 C 291.875 373.589844 290.308594 378.996094 286.019531 381.332031 C 284.667969 382.082031 283.195312 382.421875 281.757812 382.421875 " fill-opacity="1" fill-rule="nonzero"/></svg>