<svg xmlns="http://www.w3.org/2000/svg" xmlns:xlink="http://www.w3.org/1999/xlink" width="1080" zoomAndPan="magnify" viewBox="0 0 810 809.999993" height="1080" preserveAspectRatio="xMidYMid meet" version="1.0"><defs><clipPath id="b8e8ffbc0b"><path d="M 241.164062 0 L 568.914062 0 L 568.914062 421 L 241.164062 421 Z M 241.164062 0 " clip-rule="nonzero"/></clipPath><clipPath id="03f6ab9ada"><path d="M 393 14 L 568.914062 14 L 568.914062 394 L 393 394 Z M 393 14 " clip-rule="nonzero"/></clipPath></defs><g clip-path="url(#b8e8ffbc0b)"><path fill="#ffca2f" d="M 487.390625 23.515625 C 481.789062 20.15625 476.027344 17.117188 470.105469 14.398438 C 449.296875 4.960938 426.566406 0 403.675781 0 L 403.355469 0 C 367.339844 1.441406 337.730469 10.398438 314.359375 24.796875 C 264.738281 55.191406 242.328125 109.421875 241.691406 167.332031 C 241.371094 199.964844 248.09375 233.71875 260.738281 265.074219 C 285.226562 325.382812 331.96875 376.414062 394.234375 391.609375 C 394.074219 391.929688 393.753906 392.410156 393.59375 392.730469 C 389.269531 399.929688 384.949219 406.96875 380.628906 414.167969 C 379.667969 415.765625 381.746094 418.328125 383.507812 417.046875 C 388.308594 413.367188 395.03125 414.328125 398.234375 419.765625 C 399.035156 421.046875 400.957031 421.527344 401.914062 420.246094 C 403.515625 418.328125 405.277344 416.886719 407.359375 415.765625 C 411.839844 413.207031 417.441406 412.886719 422.40625 415.128906 C 424.964844 416.246094 428.167969 413.847656 426.566406 410.96875 C 422.882812 405.207031 420.164062 399.449219 418.242188 393.050781 C 418.082031 392.570312 417.921875 392.25 417.921875 391.769531 C 429.128906 389.210938 440.652344 384.09375 452.175781 376.574219 C 452.335938 376.414062 452.496094 376.414062 452.65625 376.253906 C 481.949219 357.21875 510.921875 324.261719 532.53125 286.828125 C 532.53125 286.828125 532.53125 286.828125 532.53125 286.667969 C 532.691406 286.191406 533.011719 285.871094 533.171875 285.390625 C 553.820312 249.234375 567.746094 209.242188 568.542969 173.730469 C 568.542969 172.609375 568.542969 171.488281 568.542969 170.371094 C 568.703125 151.171875 565.503906 132.136719 559.261719 114.058594 C 546.617188 76.785156 521.324219 43.832031 487.390625 23.515625 Z M 487.390625 23.515625 " fill-opacity="1" fill-rule="nonzero"/></g><path fill="#efe9bc" d="M 342.53125 59.507812 C 326.84375 72.308594 308.277344 80.945312 292.75 94.222656 C 268.742188 103.34375 304.277344 41.753906 331.007812 39.832031 C 341.570312 37.273438 352.136719 51.351562 342.53125 59.507812 Z M 342.53125 59.507812 " fill-opacity="1" fill-rule="nonzero"/><g clip-path="url(#03f6ab9ada)"><path fill="#e0b447" d="M 487.390625 23.515625 C 481.789062 20.15625 476.027344 17.117188 470.105469 14.398438 C 494.113281 30.554688 510.921875 49.75 522.125 70.707031 C 534.128906 93.261719 539.574219 118.058594 539.894531 143.335938 C 541.492188 254.835938 446.414062 378.972656 396.152344 392.089844 C 395.191406 392.410156 394.234375 392.570312 393.433594 392.730469 C 393.433594 392.730469 393.273438 392.730469 393.113281 392.730469 L 393.273438 392.730469 C 395.992188 393.050781 398.714844 393.210938 401.4375 393.210938 C 407.839844 393.210938 412.960938 393.371094 417.921875 393.050781 C 417.761719 392.570312 417.601562 392.25 417.601562 391.769531 C 428.808594 389.210938 440.332031 384.09375 451.855469 376.574219 C 452.015625 376.414062 452.175781 376.414062 452.335938 376.253906 C 481.628906 357.21875 510.601562 324.261719 532.210938 286.828125 C 532.210938 286.828125 532.210938 286.828125 532.210938 286.667969 C 532.371094 286.191406 532.691406 285.871094 532.851562 285.390625 C 553.5 249.234375 567.425781 209.242188 568.222656 173.730469 C 568.222656 172.609375 568.222656 171.488281 568.222656 170.371094 C 568.542969 139.175781 559.742188 108.300781 544.054688 81.585938 C 540.851562 76.148438 537.171875 70.707031 533.332031 65.589844 C 521.164062 48.792969 505.480469 34.394531 487.390625 23.515625 Z M 487.390625 23.515625 " fill-opacity="1" fill-rule="nonzero"/></g><path fill="#48c3cd" d="M 419.523438 391.292969 C 419.203125 390.8125 418.5625 390.492188 417.761719 390.652344 C 409.597656 391.769531 401.597656 391.769531 393.433594 390.8125 C 392.953125 390.8125 392.472656 390.8125 392.152344 391.132812 C 390.871094 391.929688 390.871094 394.171875 392.152344 395.128906 C 392.472656 395.449219 392.953125 395.609375 393.433594 395.609375 C 401.597656 396.570312 409.597656 396.570312 417.761719 395.449219 C 418.242188 395.449219 418.5625 395.289062 418.882812 394.96875 C 420.003906 394.171875 420.324219 392.410156 419.523438 391.292969 Z M 398.074219 695.398438 C 394.394531 677.640625 389.910156 659.882812 387.351562 641.96875 C 384.46875 622.289062 384.308594 602.453125 386.070312 582.617188 C 390.710938 528.867188 407.679688 473.355469 402.714844 419.285156 C 402.394531 419.605469 402.074219 419.925781 401.914062 420.246094 C 400.957031 421.527344 399.035156 421.046875 398.234375 419.765625 C 398.234375 419.765625 398.234375 419.765625 398.234375 419.605469 C 403.035156 473.675781 386.230469 529.027344 381.585938 582.617188 C 378.386719 618.132812 383.828125 651.40625 391.351562 685.960938 C 399.035156 720.832031 406.078125 757.46875 394.394531 792.339844 C 393.433594 795.21875 398.074219 796.5 399.035156 793.621094 C 409.597656 761.464844 405.117188 727.550781 398.074219 695.398438 Z M 398.074219 695.398438 " fill-opacity="1" fill-rule="nonzero"/></svg>