<svg xmlns="http://www.w3.org/2000/svg" xmlns:xlink="http://www.w3.org/1999/xlink" width="1080" zoomAndPan="magnify" viewBox="0 0 810 809.999993" height="1080" preserveAspectRatio="xMidYMid meet" version="1.0"><defs><clipPath id="31b3f22a34"><path d="M 241.164062 0 L 568.914062 0 L 568.914062 422 L 241.164062 422 Z M 241.164062 0 " clip-rule="nonzero"/></clipPath><clipPath id="4234f5107d"><path d="M 393 14 L 568.914062 14 L 568.914062 394 L 393 394 Z M 393 14 " clip-rule="nonzero"/></clipPath></defs><g clip-path="url(#31b3f22a34)"><path fill="#ef3d6a" d="M 487.328125 23.523438 C 481.730469 20.164062 475.96875 17.121094 470.046875 14.402344 C 449.242188 4.960938 426.519531 0 403.636719 0 L 403.316406 0 C 367.308594 1.441406 337.707031 10.402344 314.339844 24.804688 C 264.734375 55.210938 242.328125 109.457031 241.691406 167.386719 C 241.371094 200.03125 248.089844 233.796875 260.734375 265.164062 C 285.214844 325.492188 331.945312 376.542969 394.195312 391.742188 C 394.035156 392.0625 393.714844 392.542969 393.554688 392.863281 C 389.234375 400.066406 384.914062 407.105469 380.59375 414.308594 C 379.632812 415.90625 381.710938 418.46875 383.472656 417.1875 C 388.273438 413.507812 394.996094 414.46875 398.195312 419.910156 C 398.996094 421.1875 400.914062 421.667969 401.875 420.386719 C 403.476562 418.46875 405.234375 417.027344 407.316406 415.90625 C 411.796875 413.347656 417.398438 413.027344 422.359375 415.265625 C 424.917969 416.386719 428.121094 413.988281 426.519531 411.105469 C 422.839844 405.347656 420.117188 399.585938 418.199219 393.183594 C 418.039062 392.703125 417.878906 392.382812 417.878906 391.902344 C 429.078125 389.34375 440.601562 384.222656 452.125 376.703125 C 452.285156 376.542969 452.445312 376.542969 452.605469 376.382812 C 481.886719 357.339844 510.851562 324.371094 532.457031 286.925781 C 532.457031 286.925781 532.457031 286.925781 532.457031 286.765625 C 532.617188 286.285156 532.9375 285.964844 533.097656 285.488281 C 553.742188 249.320312 567.664062 209.3125 568.460938 173.789062 C 568.460938 172.667969 568.460938 171.546875 568.460938 170.425781 C 568.621094 151.222656 565.421875 132.179688 559.179688 114.097656 C 546.539062 76.8125 521.253906 43.847656 487.328125 23.523438 Z M 487.328125 23.523438 " fill-opacity="1" fill-rule="nonzero"/></g><path fill="#ffa5bc" d="M 342.507812 59.53125 C 326.824219 72.332031 308.261719 80.972656 292.738281 94.253906 C 268.734375 103.375 304.257812 41.765625 330.984375 39.847656 C 341.546875 37.285156 352.109375 51.367188 342.507812 59.53125 Z M 342.507812 59.53125 " fill-opacity="1" fill-rule="nonzero"/><g clip-path="url(#4234f5107d)"><path fill="#e12555" d="M 487.328125 23.523438 C 481.730469 20.164062 475.96875 17.121094 470.046875 14.402344 C 494.050781 30.566406 510.851562 49.769531 522.054688 70.730469 C 534.058594 93.296875 539.496094 118.097656 539.816406 143.382812 C 541.417969 254.921875 446.363281 379.101562 396.113281 392.222656 C 395.15625 392.542969 394.195312 392.703125 393.394531 392.863281 C 393.394531 392.863281 393.234375 392.863281 393.074219 392.863281 L 393.234375 392.863281 C 395.953125 393.183594 398.675781 393.34375 401.394531 393.34375 C 407.796875 393.34375 412.917969 393.503906 417.878906 393.183594 C 417.71875 392.703125 417.558594 392.382812 417.558594 391.902344 C 428.761719 389.34375 440.28125 384.222656 451.804688 376.703125 C 451.964844 376.542969 452.125 376.542969 452.285156 376.382812 C 481.570312 357.339844 510.535156 324.371094 532.136719 286.925781 C 532.136719 286.925781 532.136719 286.925781 532.136719 286.765625 C 532.296875 286.285156 532.617188 285.964844 532.777344 285.488281 C 553.421875 249.320312 567.34375 209.3125 568.144531 173.789062 C 568.144531 172.667969 568.144531 171.546875 568.144531 170.425781 C 568.460938 139.222656 559.660156 108.335938 543.980469 81.613281 C 540.777344 76.171875 537.097656 70.730469 533.257812 65.609375 C 521.09375 48.808594 505.414062 34.40625 487.328125 23.523438 Z M 487.328125 23.523438 " fill-opacity="1" fill-rule="nonzero"/></g><path fill="#48c3cd" d="M 419.476562 391.421875 C 419.160156 390.945312 418.519531 390.625 417.71875 390.785156 C 409.558594 391.902344 401.554688 391.902344 393.394531 390.945312 C 392.914062 390.945312 392.433594 390.945312 392.113281 391.265625 C 390.832031 392.0625 390.832031 394.304688 392.113281 395.265625 C 392.433594 395.585938 392.914062 395.746094 393.394531 395.746094 C 401.554688 396.703125 409.558594 396.703125 417.71875 395.585938 C 418.199219 395.585938 418.519531 395.425781 418.839844 395.105469 C 419.957031 394.304688 420.277344 392.542969 419.476562 391.421875 Z M 398.035156 695.632812 C 394.355469 677.871094 389.875 660.105469 387.3125 642.183594 C 384.433594 622.5 384.273438 602.65625 386.03125 582.816406 C 390.671875 529.046875 407.636719 473.515625 402.675781 419.429688 C 402.355469 419.75 402.035156 420.066406 401.875 420.386719 C 400.914062 421.667969 398.996094 421.1875 398.195312 419.910156 C 398.195312 419.910156 398.195312 419.910156 398.195312 419.75 C 402.996094 473.835938 386.191406 529.207031 381.550781 582.816406 C 378.351562 618.339844 383.792969 651.625 391.3125 686.191406 C 398.996094 721.078125 406.035156 757.722656 394.355469 792.609375 C 393.394531 795.488281 398.035156 796.769531 398.996094 793.890625 C 409.558594 761.722656 405.074219 727.796875 398.035156 695.632812 Z M 398.035156 695.632812 " fill-opacity="1" fill-rule="nonzero"/></svg>