<svg xmlns="http://www.w3.org/2000/svg" xmlns:xlink="http://www.w3.org/1999/xlink" width="1080" zoomAndPan="magnify" viewBox="0 0 810 809.999993" height="1080" preserveAspectRatio="xMidYMid meet" version="1.0"><path fill="#c9c6bc" d="M 423.566406 397.472656 C 423.359375 393.550781 417.171875 393.550781 417.378906 397.265625 C 420.472656 466.984375 395.101562 535.460938 404.175781 605.179688 C 412.839844 671.804688 464.816406 735.746094 441.921875 804.636719 C 440.683594 808.351562 446.667969 810 447.90625 806.289062 C 470.386719 738.632812 422.535156 676.753906 411.394531 611.984375 C 399.226562 540.414062 426.660156 469.25 423.566406 397.472656 Z M 423.566406 397.472656 " fill-opacity="1" fill-rule="nonzero"/><path fill="#3481cd" d="M 552.6875 179.449219 C 535.980469 74.253906 454.09375 0 370.144531 13.199219 C 286.191406 26.402344 231.328125 122.726562 248.035156 227.714844 C 262.679688 320.121094 351.578125 384.683594 408.714844 393.550781 L 405.414062 405.101562 L 424.390625 401.804688 L 437.179688 406.132812 L 433.878906 393.347656 C 492.046875 380.96875 568.980469 282.789062 552.6875 179.449219 Z M 552.6875 179.449219 " fill-opacity="1" fill-rule="nonzero"/><path fill="#ffffff" d="M 355.910156 69.304688 C 360.242188 66.210938 351.371094 52.390625 347.453125 55.277344 C 316.71875 76.113281 295.476562 107.050781 286.605469 142.941406 C 285.574219 147.480469 295.476562 159.855469 297.125 153.253906 C 305.789062 119.015625 326.828125 89.3125 355.910156 69.304688 Z M 355.910156 69.304688 " fill-opacity="1" fill-rule="nonzero"/></svg>